<svg width="200" height="138" viewBox="0 0 200 138" fill="none" xmlns="http://www.w3.org/2000/svg">
<rect width="199.778" height="137.624" rx="7" fill="white"/>
<path d="M60.1538 28V81.75C60.1538 84.6011 61.2844 87.3354 63.2968 89.3514C65.3092 91.3674 68.0386 92.5 70.8846 92.5H81.6154M60.1538 28H53M60.1538 28H138.846M81.6154 92.5H117.385M81.6154 92.5L76.8462 106.833M138.846 28H146M138.846 28V81.75C138.846 84.6011 137.716 87.3354 135.703 89.3514C133.691 91.3674 130.961 92.5 128.115 92.5H117.385M117.385 92.5L122.154 106.833M76.8462 106.833H122.154M76.8462 106.833L74.4615 114M122.154 106.833L124.538 114M78.0385 71L92.3462 56.6667L102.59 66.9293C107.404 60.0077 113.675 54.2292 120.962 50.0017" stroke="#3369FF" stroke-width="5" stroke-linecap="round" stroke-linejoin="round"/>
</svg>
