<svg width="24" height="29" viewBox="0 0 24 29" fill="none" xmlns="http://www.w3.org/2000/svg">
<g filter="url(#filter0_d_166_6063)">
<path d="M5.24512 21V16.0049H7.75V21H5.24512ZM15.25 21V16.0049H17.7476V21H15.25ZM7.75 16.0049V13.5H10.2476V16.0049H7.75ZM12.7451 16.0049V13.5H15.25V16.0049H12.7451ZM10.2476 13.5V11.0024H12.7451V13.5H10.2476ZM7.75 11.0024V8.50488H10.2476V11.0024H7.75ZM12.7451 11.0024V8.50488H15.25V11.0024H12.7451ZM5.24512 8.50488V6H7.75V8.50488H5.24512ZM15.25 8.50488V6H17.7476V8.50488H15.25Z" fill="white"/>
</g>
<g filter="url(#filter1_d_166_6063)">
<path d="M6.24512 21V16.0049H8.75V21H6.24512ZM16.25 21V16.0049H18.7476V21H16.25ZM8.75 16.0049V13.5H11.2476V16.0049H8.75ZM13.7451 16.0049V13.5H16.25V16.0049H13.7451ZM11.2476 13.5V11.0024H13.7451V13.5H11.2476ZM8.75 11.0024V8.50488H11.2476V11.0024H8.75ZM13.7451 11.0024V8.50488H16.25V11.0024H13.7451ZM6.24512 8.50488V6H8.75V8.50488H6.24512ZM16.25 8.50488V6H18.7476V8.50488H16.25Z" fill="white"/>
</g>
<g filter="url(#filter2_d_166_6063)">
<path d="M5.24512 21V16.0049H7.75V21H5.24512ZM15.25 21V16.0049H17.7476V21H15.25ZM7.75 16.0049V13.5H10.2476V16.0049H7.75ZM12.7451 16.0049V13.5H15.25V16.0049H12.7451ZM10.2476 13.5V11.0024H12.7451V13.5H10.2476ZM7.75 11.0024V8.50488H10.2476V11.0024H7.75ZM12.7451 11.0024V8.50488H15.25V11.0024H12.7451ZM5.24512 8.50488V6H7.75V8.50488H5.24512ZM15.25 8.50488V6H17.7476V8.50488H15.25Z" fill="white"/>
</g>
<defs>
<filter id="filter0_d_166_6063" x="0.245117" y="4" width="22.5024" height="25" filterUnits="userSpaceOnUse" color-interpolation-filters="sRGB">
<feFlood flood-opacity="0" result="BackgroundImageFix"/>
<feColorMatrix in="SourceAlpha" type="matrix" values="0 0 0 0 0 0 0 0 0 0 0 0 0 0 0 0 0 0 127 0" result="hardAlpha"/>
<feOffset dy="3"/>
<feGaussianBlur stdDeviation="2.5"/>
<feComposite in2="hardAlpha" operator="out"/>
<feColorMatrix type="matrix" values="0 0 0 0 0 0 0 0 0 0 0 0 0 0 0 0 0 0 0.15 0"/>
<feBlend mode="normal" in2="BackgroundImageFix" result="effect1_dropShadow_166_6063"/>
<feBlend mode="normal" in="SourceGraphic" in2="effect1_dropShadow_166_6063" result="shape"/>
</filter>
<filter id="filter1_d_166_6063" x="1.24512" y="4" width="22.5024" height="25" filterUnits="userSpaceOnUse" color-interpolation-filters="sRGB">
<feFlood flood-opacity="0" result="BackgroundImageFix"/>
<feColorMatrix in="SourceAlpha" type="matrix" values="0 0 0 0 0 0 0 0 0 0 0 0 0 0 0 0 0 0 127 0" result="hardAlpha"/>
<feOffset dy="3"/>
<feGaussianBlur stdDeviation="2.5"/>
<feComposite in2="hardAlpha" operator="out"/>
<feColorMatrix type="matrix" values="0 0 0 0 0 0 0 0 0 0 0 0 0 0 0 0 0 0 0.15 0"/>
<feBlend mode="normal" in2="BackgroundImageFix" result="effect1_dropShadow_166_6063"/>
<feBlend mode="normal" in="SourceGraphic" in2="effect1_dropShadow_166_6063" result="shape"/>
</filter>
<filter id="filter2_d_166_6063" x="0.245117" y="4" width="22.5024" height="25" filterUnits="userSpaceOnUse" color-interpolation-filters="sRGB">
<feFlood flood-opacity="0" result="BackgroundImageFix"/>
<feColorMatrix in="SourceAlpha" type="matrix" values="0 0 0 0 0 0 0 0 0 0 0 0 0 0 0 0 0 0 127 0" result="hardAlpha"/>
<feOffset dy="3"/>
<feGaussianBlur stdDeviation="2.5"/>
<feComposite in2="hardAlpha" operator="out"/>
<feColorMatrix type="matrix" values="0 0 0 0 0 0 0 0 0 0 0 0 0 0 0 0 0 0 0.15 0"/>
<feBlend mode="normal" in2="BackgroundImageFix" result="effect1_dropShadow_166_6063"/>
<feBlend mode="normal" in="SourceGraphic" in2="effect1_dropShadow_166_6063" result="shape"/>
</filter>
</defs>
</svg>
