<svg width="120" height="120" viewBox="0 0 120 120" fill="none" xmlns="http://www.w3.org/2000/svg">
<rect y="20" width="10" height="10" fill="#244FA7"/>
<rect y="30" width="10" height="10" fill="#244FA7"/>
<rect y="40" width="10" height="10" fill="#244FA7"/>
<rect y="50" width="10" height="10" fill="#244FA7"/>
<rect y="60" width="10" height="10" fill="#244FA7"/>
<rect y="70" width="10" height="10" fill="#244FA7"/>
<rect y="80" width="10" height="10" fill="#244FA7"/>
<rect x="100" y="100" width="10" height="10" fill="#244FA7"/>
<rect x="10" y="10" width="10" height="10" fill="#244FA7"/>
<rect x="100" y="10" width="10" height="10" fill="#244FA7"/>
<rect x="110" y="70" width="10" height="10" fill="#244FA7"/>
<rect x="110" y="60" width="10" height="10" fill="#244FA7"/>
<rect x="110" y="80" width="10" height="10" fill="#244FA7"/>
<rect x="110" y="20" width="10" height="10" fill="#244FA7"/>
<rect x="110" y="30" width="10" height="10" fill="#244FA7"/>
<rect x="110" y="40" width="10" height="10" fill="#244FA7"/>
<rect x="110" y="40" width="10" height="10" fill="#244FA7"/>
<rect x="110" y="50" width="10" height="10" fill="#244FA7"/>
<rect x="20" y="110" width="10" height="10" fill="#244FA7"/>
<rect x="30" y="110" width="10" height="10" fill="#244FA7"/>
<rect x="40" y="110" width="10" height="10" fill="#244FA7"/>
<rect x="50" y="110" width="10" height="10" fill="#244FA7"/>
<rect x="60" y="110" width="10" height="10" fill="#244FA7"/>
<rect x="70" y="110" width="10" height="10" fill="#244FA7"/>
<rect x="80" y="110" width="10" height="10" fill="#244FA7"/>
<rect x="90" y="110" width="10" height="10" fill="#244FA7"/>
<rect x="10" y="100" width="10" height="10" fill="#244FA7"/>
<rect x="20" y="110" width="10" height="10" fill="#244FA7"/>
<rect x="30" y="110" width="10" height="10" fill="#244FA7"/>
<rect x="40" y="110" width="10" height="10" fill="#244FA7"/>
<rect x="50" y="110" width="10" height="10" fill="#244FA7"/>
<rect x="60" y="110" width="10" height="10" fill="#244FA7"/>
<rect x="70" y="110" width="10" height="10" fill="#244FA7"/>
<rect x="80" y="110" width="10" height="10" fill="#244FA7"/>
<rect x="90" y="110" width="10" height="10" fill="#244FA7"/>
<rect x="20" width="10" height="10" fill="#244FA7"/>
<rect x="30" width="10" height="10" fill="#244FA7"/>
<rect x="40" width="10" height="10" fill="#244FA7"/>
<rect x="50" width="10" height="10" fill="#244FA7"/>
<rect x="60" width="10" height="10" fill="#244FA7"/>
<rect x="70" width="10" height="10" fill="#244FA7"/>
<rect x="80" width="10" height="10" fill="#244FA7"/>
<rect x="90" width="10" height="10" fill="#244FA7"/>
<rect x="20" width="10" height="10" fill="#244FA7"/>
<rect x="30" width="10" height="10" fill="#244FA7"/>
<rect x="40" width="10" height="10" fill="#244FA7"/>
<rect x="50" width="10" height="10" fill="#244FA7"/>
<rect x="60" width="10" height="10" fill="#244FA7"/>
<rect x="70" width="10" height="10" fill="#244FA7"/>
<rect x="80" width="10" height="10" fill="#244FA7"/>
<rect x="90" width="10" height="10" fill="#244FA7"/>
<rect x="20" y="10" width="10" height="10" fill="#7ADBE7"/>
<rect x="60" y="10" width="10" height="10" fill="#7ADBE7"/>
<rect x="70" y="10" width="10" height="10" fill="#7ADBE7"/>
<rect x="80" y="10" width="10" height="10" fill="#7ADBE7"/>
<rect x="90" y="10" width="10" height="10" fill="#7ADBE7"/>
<rect x="100" y="20" width="10" height="10" fill="#7ADBE7"/>
<rect x="10" y="40" width="10" height="10" fill="#7ADBE7"/>
<rect x="10" y="30" width="10" height="10" fill="#7ADBE7"/>
<rect x="50" y="10" width="10" height="10" fill="#7ADBE7"/>
<rect x="30" y="10" width="10" height="10" fill="#7ADBE7"/>
<rect x="10" y="20" width="10" height="10" fill="white"/>
<rect x="40" y="10" width="10" height="10" fill="white"/>
<rect x="90" y="50" width="10" height="10" fill="#59E1FF"/>
<rect x="90" y="60" width="10" height="10" fill="#59E1FF"/>
<rect x="20" y="20" width="10" height="10" fill="#00ACDC"/>
<rect x="30" y="20" width="10" height="10" fill="#00ACDC"/>
<rect x="40" y="20" width="10" height="10" fill="#00ACDC"/>
<rect x="80" y="70" width="10" height="10" fill="#00ACDC"/>
<rect x="80" y="80" width="10" height="10" fill="#204A9C"/>
<rect x="70" y="90" width="10" height="10" fill="#00ACDC"/>
<rect x="60" y="90" width="10" height="10" fill="#00ACDC"/>
<rect x="50" y="90" width="10" height="10" fill="#00ACDC"/>
<rect x="40" y="90" width="10" height="10" fill="#00ACDC"/>
<rect x="30" y="80" width="10" height="10" fill="#204A9C"/>
<rect x="50" y="20" width="10" height="10" fill="#00ACDC"/>
<rect x="60" y="20" width="10" height="10" fill="#00ACDC"/>
<rect x="70" y="20" width="10" height="10" fill="#00ACDC"/>
<rect x="80" y="20" width="10" height="10" fill="#00ACDC"/>
<rect x="90" y="20" width="10" height="10" fill="#00ACDC"/>
<rect x="20" y="30" width="10" height="10" fill="#00ACDC"/>
<rect x="30" y="30" width="10" height="10" fill="#00ACDC"/>
<rect x="40" y="30" width="10" height="10" fill="#00ACDC"/>
<rect x="50" y="30" width="10" height="10" fill="#00ACDC"/>
<rect x="60" y="30" width="10" height="10" fill="#00ACDC"/>
<rect x="70" y="30" width="10" height="10" fill="#00ACDC"/>
<rect x="80" y="30" width="10" height="10" fill="#00ACDC"/>
<rect x="90" y="30" width="10" height="10" fill="#00ACDC"/>
<rect x="20" y="70" width="10" height="10" fill="#00ACDC"/>
<rect x="30" y="70" width="10" height="10" fill="#00ACDC"/>
<rect x="40" y="70" width="10" height="10" fill="#00ACDC"/>
<rect x="50" y="70" width="10" height="10" fill="#00ACDC"/>
<rect x="60" y="70" width="10" height="10" fill="#00ACDC"/>
<rect x="70" y="70" width="10" height="10" fill="#00ACDC"/>
<rect x="90" y="70" width="10" height="10" fill="#00ACDC"/>
<rect x="20" y="80" width="10" height="10" fill="#204A9C"/>
<rect x="10" y="50" width="10" height="10" fill="#0381A7"/>
<rect x="10" y="60" width="10" height="10" fill="#0381A7"/>
<rect x="10" y="70" width="10" height="10" fill="#0381A7"/>
<rect x="10" y="80" width="10" height="10" fill="#0381A7"/>
<rect x="40" y="80" width="10" height="10" fill="#0381A7"/>
<rect x="50" y="80" width="10" height="10" fill="#204A9C"/>
<rect x="60" y="80" width="10" height="10" fill="#0381A7"/>
<rect x="70" y="80" width="10" height="10" fill="#204A9C"/>
<rect x="90" y="80" width="10" height="10" fill="#0381A7"/>
<rect x="100" y="30" width="10" height="10" fill="#00ACDC"/>
<rect x="100" y="40" width="10" height="10" fill="#00ACDC"/>
<rect x="100" y="50" width="10" height="10" fill="#00ACDC"/>
<rect x="100" y="60" width="10" height="10" fill="#00ACDC"/>
<rect x="100" y="70" width="10" height="10" fill="#00ACDC"/>
<rect x="100" y="80" width="10" height="10" fill="#00ACDC"/>
<rect y="90" width="10" height="10" fill="#244FA7"/>
<rect x="110" y="90" width="10" height="10" fill="#244FA7"/>
<rect x="20" y="90" width="10" height="10" fill="#00ACDC"/>
<rect x="10" y="90" width="10" height="10" fill="#00ACDC"/>
<rect x="30" y="90" width="10" height="10" fill="#00ACDC"/>
<rect x="80" y="90" width="10" height="10" fill="#00ACDC"/>
<rect x="90" y="90" width="10" height="10" fill="#00ACDC"/>
<rect x="100" y="90" width="10" height="10" fill="#00ACDC"/>
<rect x="20" y="100" width="10" height="10" fill="#00ACDC"/>
<rect x="30" y="100" width="10" height="10" fill="#00ACDC"/>
<rect x="40" y="100" width="10" height="10" fill="#00ACDC"/>
<rect x="50" y="100" width="10" height="10" fill="#00ACDC"/>
<rect x="60" y="100" width="10" height="10" fill="#00ACDC"/>
<rect x="70" y="100" width="10" height="10" fill="#00ACDC"/>
<rect x="80" y="100" width="10" height="10" fill="#00ACDC"/>
<rect x="90" y="100" width="10" height="10" fill="#00ACDC"/>
<rect x="50" y="40" width="10" height="10" fill="#D7FDFF"/>
<rect x="50" y="50" width="10" height="10" fill="#D7FDFF"/>
<rect x="50" y="60" width="10" height="10" fill="#D7FDFF"/>
<rect x="50" y="70" width="10" height="10" fill="#D7FDFF"/>
<rect x="40" y="50" width="10" height="10" fill="#D7FDFF"/>
<rect x="30" y="50" width="10" height="10" fill="#E8FEFF"/>
<rect x="20" y="50" width="10" height="10" fill="#E8FEFF"/>
<rect x="20" y="60" width="10" height="10" fill="#E8FEFF"/>
<rect x="20" y="70" width="10" height="10" fill="#E8FEFF"/>
<rect x="30" y="70" width="10" height="10" fill="#E8FEFF"/>
<rect x="60" y="50" width="10" height="10" fill="#D7FDFF"/>
<rect x="70" y="60" width="10" height="10" fill="#94ECFF"/>
<rect x="70" y="70" width="10" height="10" fill="#94ECFF"/>
<rect x="70" y="50" width="10" height="10" fill="#94ECFF"/>
<rect x="80" y="50" width="10" height="10" fill="#94ECFF"/>
<rect x="90" y="40" width="10" height="10" fill="#59E1FF"/>
<rect x="90" y="70" width="10" height="10" fill="#59E1FF"/>
<rect x="40" y="40" width="10" height="10" fill="#0381A7"/>
<rect x="60" y="40" width="10" height="10" fill="#00ACDC"/>
<rect x="70" y="40" width="10" height="10" fill="#00ACDC"/>
<rect x="30" y="60" width="10" height="10" fill="#204A9C"/>
<rect x="40" y="70" width="10" height="10" fill="#0381A7"/>
<rect x="60" y="70" width="10" height="10" fill="#0381A7"/>
<rect x="20" y="40" width="10" height="10" fill="#00ACDC"/>
<rect x="30" y="40" width="10" height="10" fill="#00ACDC"/>
<rect x="80" y="40" width="10" height="10" fill="#0381A7"/>
<rect x="40" y="60" width="10" height="10" fill="#0381A7"/>
<rect x="60" y="60" width="10" height="10" fill="#0381A7"/>
<rect x="80" y="60" width="10" height="10" fill="#204A9C"/>
<rect x="80" y="70" width="10" height="10" fill="#204A9C"/>
</svg>
