<svg width="24" height="24" viewBox="0 0 24 24" fill="none" xmlns="http://www.w3.org/2000/svg">
<path d="M7.84818 8.25011L9.38418 9.13711M7.84818 8.25011C7.65264 8.59404 7.39099 8.8959 7.07831 9.13831C6.76562 9.38071 6.40808 9.55888 6.02626 9.66254C5.64444 9.7662 5.24589 9.79331 4.85355 9.74232C4.46121 9.69132 4.08283 9.56322 3.7402 9.3654C3.39757 9.16757 3.09745 8.90393 2.85713 8.58965C2.6168 8.27536 2.44101 7.91664 2.33989 7.53415C2.23876 7.15165 2.21429 6.75293 2.26789 6.36093C2.32149 5.96894 2.45209 5.59142 2.65218 5.25011C3.05284 4.56669 3.70754 4.06948 4.47343 3.867C5.23932 3.66451 6.05421 3.77317 6.74027 4.16928C7.42633 4.56539 7.92787 5.21679 8.13543 5.98131C8.34299 6.74584 8.23973 7.56143 7.84818 8.25011ZM9.38418 9.13711C9.70818 9.32398 9.97823 9.5916 10.168 9.91389C10.3578 10.2362 10.4609 10.6021 10.4672 10.9761C10.4722 11.3271 10.5212 11.6711 10.6072 12.0001M9.38418 9.13711L11.4612 10.3361M10.6072 12.0001C10.5212 12.3301 10.4722 12.6731 10.4672 13.0251C10.4607 13.3989 10.3576 13.7647 10.1678 14.0868C9.978 14.4089 9.70803 14.6763 9.38418 14.8631M10.6072 12.0001C10.7673 11.3899 11.0587 10.822 11.4612 10.3361M11.4612 10.3361C12.0007 9.68391 12.7197 9.20441 13.5292 8.95711L18.8542 7.32911C19.6604 7.0824 20.5197 7.06716 21.3342 7.28511L22.1372 7.50011L14.3432 12.0001M7.84818 15.7501L9.38418 14.8631M7.84818 15.7501C8.04828 16.0914 8.17888 16.4689 8.23248 16.8609C8.28608 17.2529 8.26161 17.6516 8.16048 18.0341C8.05935 18.4166 7.88357 18.7754 7.64324 19.0896C7.40292 19.4039 7.1028 19.6676 6.76017 19.8654C6.41754 20.0632 6.03916 20.1913 5.64682 20.2423C5.25448 20.2933 4.85593 20.2662 4.47411 20.1625C4.09229 20.0589 3.73475 19.8807 3.42206 19.6383C3.10938 19.3959 2.84773 19.094 2.65218 18.7501C2.26063 18.0614 2.15737 17.2458 2.36494 16.4813C2.5725 15.7168 3.07404 15.0654 3.7601 14.6693C4.44616 14.2732 5.26105 14.1645 6.02694 14.367C6.79283 14.5695 7.44753 15.0667 7.84818 15.7501ZM9.38418 14.8631L11.4612 13.6641M11.4612 13.6641C12.0007 14.3163 12.7197 14.7957 13.5292 15.0431L18.8552 16.6721C19.6615 16.9185 20.5208 16.9334 21.3352 16.7151L22.1372 16.5001L14.3432 12.0001M11.4612 13.6641L14.3432 12.0001" stroke="white" stroke-width="2" stroke-linecap="round" stroke-linejoin="round"/>
</svg>
