<svg width="40" height="38" viewBox="0 0 40 38" fill="none" xmlns="http://www.w3.org/2000/svg">
<path d="M32 -3.49691e-07C36.4183 -1.56562e-07 40 3.58172 40 8L40 30C40 34.4183 36.4183 38 32 38L8 38C3.58172 38 -1.50447e-06 34.4183 -1.31134e-06 30L-3.49691e-07 8C-1.56562e-07 3.58172 3.58172 -1.59189e-06 8 -1.39876e-06L32 -3.49691e-07Z" fill="url(#paint0_linear_852_4944)"/>
<path d="M14.4828 14.9687L16.3388 16.0405M14.4828 14.9687C14.2465 15.3843 13.9304 15.749 13.5525 16.0419C13.1747 16.3348 12.7427 16.5501 12.2813 16.6754C11.82 16.8006 11.3384 16.8334 10.8643 16.7718C10.3902 16.7102 9.93302 16.5554 9.519 16.3163C9.10499 16.0773 8.74235 15.7587 8.45195 15.379C8.16156 14.9992 7.94915 14.5658 7.82696 14.1036C7.70476 13.6414 7.6752 13.1596 7.73996 12.6859C7.80472 12.2123 7.96254 11.7561 8.20432 11.3437C8.68844 10.5179 9.47954 9.9171 10.405 9.67243C11.3304 9.42775 12.3151 9.55906 13.1441 10.0377C13.9731 10.5163 14.5791 11.3034 14.8299 12.2272C15.0807 13.151 14.9559 14.1365 14.4828 14.9687ZM16.3388 16.0405C16.7303 16.2663 17.0566 16.5897 17.286 16.9791C17.5153 17.3685 17.6398 17.8107 17.6474 18.2626C17.6535 18.6867 17.7127 19.1024 17.8166 19.4999M16.3388 16.0405L18.8485 17.4893M17.8166 19.4999C17.7127 19.8987 17.6535 20.3131 17.6474 20.7385C17.6396 21.1902 17.515 21.6321 17.2857 22.0213C17.0563 22.4105 16.7301 22.7337 16.3388 22.9594M17.8166 19.4999C18.01 18.7626 18.3622 18.0763 18.8485 17.4893M18.8485 17.4893C19.5004 16.7012 20.3693 16.1218 21.3474 15.823L27.7817 13.8558C28.7559 13.5577 29.7943 13.5393 30.7784 13.8026L31.7487 14.0624L22.3309 19.4999M14.4828 24.0312L16.3388 22.9594M14.4828 24.0312C14.7246 24.4436 14.8824 24.8998 14.9472 25.3734C15.0119 25.8471 14.9824 26.3289 14.8602 26.7911C14.738 27.2532 14.5256 27.6867 14.2352 28.0665C13.9448 28.4462 13.5821 28.7648 13.1681 29.0038C12.7541 29.2429 12.2969 29.3977 11.8228 29.4593C11.3488 29.5209 10.8672 29.4881 10.4058 29.3629C9.94444 29.2376 9.51241 29.0223 9.13459 28.7294C8.75676 28.4365 8.4406 28.0718 8.20432 27.6562C7.73119 26.824 7.60642 25.8385 7.85723 24.9147C8.10803 23.9909 8.71406 23.2038 9.54305 22.7252C10.372 22.2466 11.3567 22.1153 12.2821 22.3599C13.2076 22.6046 13.9987 23.2054 14.4828 24.0312ZM16.3388 22.9594L18.8485 21.5106M18.8485 21.5106C19.5004 22.2986 20.3693 22.878 21.3474 23.1769L27.7829 25.1453C28.7572 25.443 29.7956 25.461 30.7796 25.1972L31.7487 24.9374L22.3309 19.4999M18.8485 21.5106L22.3309 19.4999" stroke="white" stroke-width="2" stroke-linecap="round" stroke-linejoin="round"/>
<defs>
<linearGradient id="paint0_linear_852_4944" x1="-2.38419e-06" y1="-1.74846e-06" x2="-4.04522e-06" y2="38" gradientUnits="userSpaceOnUse">
<stop stop-color="#E2F979"/>
<stop offset="0.34375" stop-color="#B0E5CF"/>
<stop offset="0.666667" stop-color="#BA98D7"/>
<stop offset="1" stop-color="#D16FCE"/>
</linearGradient>
</defs>
</svg>
