<svg width="1054" height="594" viewBox="0 0 1054 594" fill="none" xmlns="http://www.w3.org/2000/svg">
<rect width="1054" height="594" fill="#18162F"/>
<path d="M177 250.828H208.3V342.484H238.449V250.828H269.748V343.172H254.329V358.295H192.42V343.172H177V250.828Z" fill="#37FF8B"/>
<path d="M316.054 250.828V266.181H331.474V358.295H300.174V266.639H285.445V281.991H270.025V358.295H238.726V250.828H270.025V266.181H284.755V250.828H316.054Z" fill="#37FF8B"/>
<path d="M381.232 358.295H349.932V205H381.232V358.295Z" fill="#37FF8B"/>
<path d="M399.782 266.181H415.202V250.828H477.111V266.181H492.53V343.172H477.111V358.295H415.202V343.172H399.782V266.181ZM431.082 266.639V342.484H461.231V266.639H431.082Z" fill="#37FF8B"/>
<path d="M588.317 250.828V266.181H603.737V358.295H572.437V266.639H557.708V281.991H542.288V358.295H510.989V250.828H542.288V266.181H557.018V250.828H588.317Z" fill="#37FF8B"/>
<path d="M714.944 327.132V343.172H699.524V358.295H637.615V343.172H622.195V266.181H637.615V250.828H699.524V266.181H714.944V297.344H699.524V312.467H653.495V342.484H699.064V327.132H714.944ZM653.495 266.639V296.656H683.644V266.639H653.495Z" fill="#37FF8B"/>
<path d="M764.702 358.295H733.402V205H764.702V358.295Z" fill="#37FF8B"/>
<path d="M829.281 343.172H814.091V312.467H798.671V281.991H783.252V250.828H814.551V281.304H829.971V312.009H844.7V250.828H876V281.991H860.58V327.819H845.391V373.648H829.971V389H798.671V357.837H829.281V343.172Z" fill="#37FF8B"/>
</svg>
