<svg width="120" height="120" viewBox="0 0 120 120" fill="none" xmlns="http://www.w3.org/2000/svg">
<rect y="20" width="10" height="10" fill="#0A1D44"/>
<rect y="30" width="10" height="10" fill="#0A1D44"/>
<rect y="40" width="10" height="10" fill="#0A1D44"/>
<rect y="50" width="10" height="10" fill="#0A1D44"/>
<rect y="60" width="10" height="10" fill="#0A1D44"/>
<rect y="70" width="10" height="10" fill="#0A1D44"/>
<rect y="80" width="10" height="10" fill="#0A1D44"/>
<rect x="100" y="100" width="10" height="10" fill="#0A1D44"/>
<rect x="10" y="10" width="10" height="10" fill="#0A1D44"/>
<rect x="100" y="10" width="10" height="10" fill="#0A1D44"/>
<rect x="110" y="70" width="10" height="10" fill="#0A1D44"/>
<rect x="110" y="60" width="10" height="10" fill="#0A1D44"/>
<rect x="110" y="80" width="10" height="10" fill="#0A1D44"/>
<rect x="110" y="20" width="10" height="10" fill="#0A1D44"/>
<rect x="110" y="30" width="10" height="10" fill="#0A1D44"/>
<rect x="110" y="40" width="10" height="10" fill="#0A1D44"/>
<rect x="110" y="40" width="10" height="10" fill="#0A1D44"/>
<rect x="110" y="50" width="10" height="10" fill="#0A1D44"/>
<rect x="20" y="110" width="10" height="10" fill="#0A1D44"/>
<rect x="30" y="110" width="10" height="10" fill="#0A1D44"/>
<rect x="40" y="110" width="10" height="10" fill="#0A1D44"/>
<rect x="50" y="110" width="10" height="10" fill="#0A1D44"/>
<rect x="60" y="110" width="10" height="10" fill="#0A1D44"/>
<rect x="70" y="110" width="10" height="10" fill="#0A1D44"/>
<rect x="80" y="110" width="10" height="10" fill="#0A1D44"/>
<rect x="90" y="110" width="10" height="10" fill="#0A1D44"/>
<rect x="10" y="100" width="10" height="10" fill="#0A1D44"/>
<rect x="20" y="110" width="10" height="10" fill="#0A1D44"/>
<rect x="30" y="110" width="10" height="10" fill="#0A1D44"/>
<rect x="40" y="110" width="10" height="10" fill="#0A1D44"/>
<rect x="50" y="110" width="10" height="10" fill="#0A1D44"/>
<rect x="60" y="110" width="10" height="10" fill="#0A1D44"/>
<rect x="70" y="110" width="10" height="10" fill="#0A1D44"/>
<rect x="80" y="110" width="10" height="10" fill="#0A1D44"/>
<rect x="90" y="110" width="10" height="10" fill="#0A1D44"/>
<rect x="20" width="10" height="10" fill="#0A1D44"/>
<rect x="30" width="10" height="10" fill="#0A1D44"/>
<rect x="40" width="10" height="10" fill="#0A1D44"/>
<rect x="50" width="10" height="10" fill="#0A1D44"/>
<rect x="60" width="10" height="10" fill="#0A1D44"/>
<rect x="70" width="10" height="10" fill="#0A1D44"/>
<rect x="80" width="10" height="10" fill="#0A1D44"/>
<rect x="90" width="10" height="10" fill="#0A1D44"/>
<rect x="20" width="10" height="10" fill="#0A1D44"/>
<rect x="30" width="10" height="10" fill="#0A1D44"/>
<rect x="40" width="10" height="10" fill="#0A1D44"/>
<rect x="50" width="10" height="10" fill="#0A1D44"/>
<rect x="60" width="10" height="10" fill="#0A1D44"/>
<rect x="70" width="10" height="10" fill="#0A1D44"/>
<rect x="80" width="10" height="10" fill="#0A1D44"/>
<rect x="90" width="10" height="10" fill="#0A1D44"/>
<rect x="20" y="10" width="10" height="10" fill="#4B868D"/>
<rect x="60" y="10" width="10" height="10" fill="#4B868D"/>
<rect x="70" y="10" width="10" height="10" fill="#4B868D"/>
<rect x="80" y="10" width="10" height="10" fill="#4B868D"/>
<rect x="90" y="10" width="10" height="10" fill="#4B868D"/>
<rect x="100" y="20" width="10" height="10" fill="#4B868D"/>
<rect x="10" y="40" width="10" height="10" fill="#4B868D"/>
<rect x="10" y="30" width="10" height="10" fill="#4B868D"/>
<rect x="50" y="10" width="10" height="10" fill="#4B868D"/>
<rect x="30" y="10" width="10" height="10" fill="#4B868D"/>
<rect x="10" y="20" width="10" height="10" fill="white"/>
<rect x="40" y="10" width="10" height="10" fill="white"/>
<rect x="50" y="60" width="10" height="10" fill="#E4F9FF"/>
<rect x="40" y="50" width="10" height="10" fill="#E4F9FF"/>
<rect x="40" y="40" width="10" height="10" fill="black" fill-opacity="0.25"/>
<rect x="20" y="40" width="10" height="10" fill="#E4F9FF"/>
<rect x="20" y="20" width="10" height="10" fill="#0B5F76" fill-opacity="0.35"/>
<rect x="30" y="20" width="10" height="10" fill="#0B5F76" fill-opacity="0.35"/>
<rect x="40" y="20" width="10" height="10" fill="#0B5F76" fill-opacity="0.35"/>
<rect x="70" y="20" width="10" height="10" fill="#0B5F76" fill-opacity="0.35"/>
<rect x="80" y="20" width="10" height="10" fill="#0B5F76" fill-opacity="0.35"/>
<rect x="90" y="20" width="10" height="10" fill="#0B5F76" fill-opacity="0.35"/>
<rect x="20" y="30" width="10" height="10" fill="#0B5F76" fill-opacity="0.35"/>
<rect x="90" y="30" width="10" height="10" fill="#0B5F76" fill-opacity="0.35"/>
<rect x="10" y="50" width="10" height="10" fill="#0B5F76" fill-opacity="0.35"/>
<rect x="10" y="60" width="10" height="10" fill="#0B5F76" fill-opacity="0.35"/>
<rect x="10" y="70" width="10" height="10" fill="#0B5F76" fill-opacity="0.35"/>
<rect x="10" y="80" width="10" height="10" fill="#0B5F76" fill-opacity="0.35"/>
<rect x="100" y="30" width="10" height="10" fill="#0B5F76" fill-opacity="0.35"/>
<rect x="100" y="40" width="10" height="10" fill="#0B5F76" fill-opacity="0.35"/>
<rect x="100" y="50" width="10" height="10" fill="#0B5F76" fill-opacity="0.35"/>
<rect x="100" y="60" width="10" height="10" fill="#0B5F76" fill-opacity="0.35"/>
<rect x="100" y="70" width="10" height="10" fill="#0B5F76" fill-opacity="0.35"/>
<rect x="100" y="80" width="10" height="10" fill="#0B5F76" fill-opacity="0.35"/>
<rect y="90" width="10" height="10" fill="#0A1D44"/>
<rect x="110" y="90" width="10" height="10" fill="#0A1D44"/>
<rect x="20" y="90" width="10" height="10" fill="#0B5F76" fill-opacity="0.35"/>
<rect x="10" y="90" width="10" height="10" fill="#0B5F76" fill-opacity="0.35"/>
<rect x="90" y="90" width="10" height="10" fill="#0B5F76" fill-opacity="0.35"/>
<rect x="100" y="90" width="10" height="10" fill="#0B5F76" fill-opacity="0.35"/>
<rect x="20" y="100" width="10" height="10" fill="#0B5F76" fill-opacity="0.35"/>
<rect x="30" y="100" width="10" height="10" fill="#0B5F76" fill-opacity="0.35"/>
<rect x="40" y="100" width="10" height="10" fill="#0B5F76" fill-opacity="0.35"/>
<rect x="70" y="100" width="10" height="10" fill="#0B5F76" fill-opacity="0.35"/>
<rect x="80" y="100" width="10" height="10" fill="#AAC7CF"/>
<rect x="90" y="100" width="10" height="10" fill="#0B5F76" fill-opacity="0.35"/>
<rect x="50" y="20" width="10" height="10" fill="#DDE5F2"/>
<rect x="60" y="20" width="10" height="10" fill="#DDE5F2"/>
<rect x="70" y="30" width="10" height="10" fill="#DDE5F2"/>
<rect x="80" y="30" width="10" height="10" fill="#DDE5F2"/>
<rect x="90" y="50" width="10" height="10" fill="#A1A9CA"/>
<rect x="90" y="60" width="10" height="10" fill="#A1A9CA"/>
<rect x="90" y="70" width="10" height="10" fill="#A1A9CA"/>
<rect x="90" y="80" width="10" height="10" fill="#878EAA"/>
<rect x="80" y="90" width="10" height="10" fill="#878EAA"/>
<rect x="70" y="90" width="10" height="10" fill="#878EAA"/>
<rect x="60" y="100" width="10" height="10" fill="#8B94B8"/>
<rect x="50" y="100" width="10" height="10" fill="#66698E"/>
<rect x="40" y="90" width="10" height="10" fill="#66698E"/>
<rect x="30" y="90" width="10" height="10" fill="#66698E"/>
<rect x="30" y="30" width="10" height="10" fill="#DDE5F2"/>
<rect x="40" y="30" width="10" height="10" fill="#DDE5F2"/>
<rect x="30" y="50" width="10" height="10" fill="#E4F9FF"/>
<rect x="20" y="50" width="10" height="10" fill="#66698E"/>
<rect x="20" y="50" width="10" height="10" fill="#66698E"/>
<rect x="20" y="60" width="10" height="10" fill="#66698E"/>
<rect x="20" y="70" width="10" height="10" fill="#66698E"/>
<rect x="20" y="80" width="10" height="10" fill="#66698E"/>
<rect x="40" y="60" width="10" height="10" fill="#66698E"/>
<rect x="30" y="60" width="10" height="10" fill="#66698E"/>
<rect x="30" y="70" width="10" height="10" fill="#66698E"/>
<rect x="30" y="80" width="10" height="10" fill="black" fill-opacity="0.25"/>
<rect x="40" y="80" width="10" height="10" fill="#66698E"/>
<rect x="40" y="70" width="10" height="10" fill="black" fill-opacity="0.25"/>
<rect x="50" y="90" width="10" height="10" fill="#66698E"/>
<rect x="50" y="90" width="10" height="10" fill="#66698E"/>
<rect x="50" y="80" width="10" height="10" fill="#66698E"/>
<rect x="50" y="70" width="10" height="10" fill="#66698E"/>
<rect x="80" y="70" width="10" height="10" fill="black" fill-opacity="0.25"/>
<rect x="50" y="30" width="10" height="10" fill="#DDE5F2"/>
<rect x="60" y="30" width="10" height="10" fill="#DDE5F2"/>
<rect x="80" y="40" width="10" height="10" fill="#DDE5F2"/>
<rect x="80" y="40" width="10" height="10" fill="#DDE5F2"/>
<rect x="80" y="40" width="10" height="10" fill="#DDE5F2"/>
<rect x="90" y="40" width="10" height="10" fill="#DDE5F2"/>
<rect x="80" y="40" width="10" height="10" fill="black" fill-opacity="0.25"/>
<rect x="70" y="40" width="10" height="10" fill="#DDE5F2"/>
<rect x="60" y="40" width="10" height="10" fill="black" fill-opacity="0.25"/>
<rect x="50" y="40" width="10" height="10" fill="#DDE5F2"/>
<rect x="40" y="50" width="10" height="10" fill="#DDE5F2"/>
<rect x="30" y="40" width="10" height="10" fill="#DDE5F2"/>
<rect x="20" y="40" width="10" height="10" fill="#DDE5F2"/>
<rect x="50" y="50" width="10" height="10" fill="#DDE5F2"/>
<rect x="50" y="60" width="10" height="10" fill="#DDE5F2"/>
<rect x="60" y="60" width="10" height="10" fill="#DDE5F2"/>
<rect x="70" y="50" width="10" height="10" fill="#DDE5F2"/>
<rect x="60" y="50" width="10" height="10" fill="#DDE5F2"/>
<rect x="60" y="70" width="10" height="10" fill="#8B94B8"/>
<rect x="70" y="70" width="10" height="10" fill="#A1A9CA"/>
<rect x="70" y="80" width="10" height="10" fill="#A1A9CA"/>
<rect x="80" y="80" width="10" height="10" fill="#A1A9CA"/>
<rect x="60" y="80" width="10" height="10" fill="#8B94B8"/>
<rect x="60" y="90" width="10" height="10" fill="#8B94B8"/>
<rect x="80" y="60" width="10" height="10" fill="#A1A9CA"/>
<rect x="80" y="50" width="10" height="10" fill="#DDE5F2"/>
<rect x="70" y="60" width="10" height="10" fill="#A1A9CA"/>
</svg>
