<svg width="53" height="53" viewBox="0 0 53 53" fill="none" xmlns="http://www.w3.org/2000/svg">
<path d="M24.3757 24.3757L24.4819 24.3239C24.8142 24.1579 25.187 24.0906 25.5563 24.13C25.9256 24.1693 26.2759 24.3137 26.5657 24.546C26.8555 24.7782 27.0727 25.0887 27.1915 25.4406C27.3103 25.7924 27.3258 26.171 27.2362 26.5314L25.4017 33.8795C25.3114 34.2401 25.3264 34.619 25.445 34.9713C25.5635 35.3236 25.7806 35.6345 26.0706 35.8672C26.3605 36.0998 26.7111 36.2444 27.0807 36.2839C27.4503 36.3233 27.8235 36.2559 28.156 36.0896L28.2622 36.0352M49.6379 26.3189C49.6379 29.3812 49.0347 32.4135 47.8628 35.2427C46.691 38.0719 44.9733 40.6426 42.8079 42.8079C40.6426 44.9733 38.0719 46.691 35.2427 47.8628C32.4135 49.0347 29.3812 49.6379 26.3189 49.6379C23.2567 49.6379 20.2244 49.0347 17.3952 47.8628C14.566 46.691 11.9953 44.9733 9.82996 42.8079C7.6646 40.6426 5.94694 38.0719 4.77505 35.2427C3.60316 32.4135 3 29.3812 3 26.3189C3 20.1344 5.45681 14.2031 9.82996 9.82996C14.2031 5.45681 20.1344 3 26.3189 3C32.5035 3 38.4348 5.45681 42.8079 9.82996C47.1811 14.2031 49.6379 20.1344 49.6379 26.3189ZM26.3189 16.6027H26.3397V16.6234H26.3189V16.6027Z" stroke="white" stroke-width="5" stroke-linecap="round" stroke-linejoin="round"/>
</svg>
