<svg width="40" height="38" viewBox="0 0 40 38" fill="none" xmlns="http://www.w3.org/2000/svg">
<rect x="40" width="38" height="40" rx="8" transform="rotate(90 40 0)" fill="url(#paint0_linear_101_5914)"/>
<g filter="url(#filter0_d_101_5914)">
<path d="M26.6242 13.0929C26.7829 12.7179 26.6983 12.2841 26.4104 11.9962C26.1224 11.7082 25.6886 11.6237 25.3136 11.7823L11.2597 17.7282C10.8798 17.889 10.6375 18.2664 10.6497 18.6788C10.6619 19.0911 10.926 19.4536 11.3148 19.5916L16.85 21.5566L18.815 27.0918C18.953 27.4805 19.3155 27.7446 19.7278 27.7568C20.1401 27.769 20.5176 27.5268 20.6783 27.1469L26.6242 13.0929Z" stroke="white" stroke-width="2" stroke-linejoin="round" shape-rendering="crispEdges"/>
</g>
<defs>
<filter id="filter0_d_101_5914" x="3.64929" y="8.70322" width="28.054" height="28.054" filterUnits="userSpaceOnUse" color-interpolation-filters="sRGB">
<feFlood flood-opacity="0" result="BackgroundImageFix"/>
<feColorMatrix in="SourceAlpha" type="matrix" values="0 0 0 0 0 0 0 0 0 0 0 0 0 0 0 0 0 0 127 0" result="hardAlpha"/>
<feOffset dx="-1" dy="3"/>
<feGaussianBlur stdDeviation="2.5"/>
<feComposite in2="hardAlpha" operator="out"/>
<feColorMatrix type="matrix" values="0 0 0 0 0 0 0 0 0 0 0 0 0 0 0 0 0 0 0.15 0"/>
<feBlend mode="normal" in2="BackgroundImageFix" result="effect1_dropShadow_101_5914"/>
<feBlend mode="normal" in="SourceGraphic" in2="effect1_dropShadow_101_5914" result="shape"/>
</filter>
<linearGradient id="paint0_linear_101_5914" x1="40" y1="40" x2="78" y2="40" gradientUnits="userSpaceOnUse">
<stop stop-color="#E2F979"/>
<stop offset="0.34375" stop-color="#B0E5CF"/>
<stop offset="0.666667" stop-color="#BA98D7"/>
<stop offset="1" stop-color="#D16FCE"/>
</linearGradient>
</defs>
</svg>
