<svg width="219" height="58" viewBox="0 0 219 58" fill="none" xmlns="http://www.w3.org/2000/svg">
<path d="M0 14.4458H9.80634V43.3375H19.2522V14.4458H29.0585V43.5542H24.2274V48.3213H4.83106V43.5542H0V14.4458Z" fill="#37FF8B"/>
<path d="M43.5663 14.4458V19.2852H48.3974V48.3213H38.5911V19.4296H33.9763V24.269H29.1452V48.3213H19.3389V14.4458H29.1452V19.2852H33.76V14.4458H43.5663Z" fill="#37FF8B"/>
<path d="M63.9868 48.3213H54.1805V0H63.9868V48.3213Z" fill="#37FF8B"/>
<path d="M69.7986 19.2852H74.6297V14.4458H94.0261V19.2852H98.8571V43.5542H94.0261V48.3213H74.6297V43.5542H69.7986V19.2852ZM79.605 19.4296V43.3375H89.0508V19.4296H79.605Z" fill="#37FF8B"/>
<path d="M128.868 14.4458V19.2852H133.699V48.3213H123.892V19.4296H119.278V24.269H114.447V48.3213H104.64V14.4458H114.447V19.2852H119.061V14.4458H128.868Z" fill="#37FF8B"/>
<path d="M168.54 38.4981V43.5542H163.709V48.3213H144.313V43.5542H139.482V19.2852H144.313V14.4458H163.709V19.2852H168.54V29.1083H163.709V33.8755H149.288V43.3375H163.565V38.4981H168.54ZM149.288 19.4296V28.8917H158.734V19.4296H149.288Z" fill="#37FF8B"/>
<path d="M184.13 48.3213H174.323V0H184.13V48.3213Z" fill="#37FF8B"/>
<path d="M204.363 43.5542H199.604V33.8755H194.773V24.269H189.941V14.4458H199.748V24.0523H204.579V33.731H209.194V14.4458H219V24.269H214.169V38.7148H209.41V53.1606H204.579V58H194.773V48.1768H204.363V43.5542Z" fill="#37FF8B"/>
</svg>
