<svg width="123" height="33" viewBox="0 0 123 33" fill="none" xmlns="http://www.w3.org/2000/svg">
<path d="M0.751562 8.28H6.19156V24.28H11.4316V8.28H16.8716V24.4H14.1916V27.04H3.43156V24.4H0.751562V8.28ZM24.9197 8.28V10.96H27.5997V27.04H22.1597V11.04H19.5997V13.72H16.9197V27.04H11.4797V8.28H16.9197V10.96H19.4797V8.28H24.9197ZM36.2478 27.04H30.8078V0.279998H36.2478V27.04ZM39.4719 10.96H42.1519V8.28H52.9119V10.96H55.5919V24.4H52.9119V27.04H42.1519V24.4H39.4719V10.96ZM44.9119 11.04V24.28H50.1519V11.04H44.9119ZM72.24 8.28V10.96H74.92V27.04H69.48V11.04H66.92V13.72H64.24V27.04H58.8V8.28H64.24V10.96H66.8V8.28H72.24ZM94.2481 21.6V24.4H91.5681V27.04H80.8081V24.4H78.1281V10.96H80.8081V8.28H91.5681V10.96H94.2481V16.4H91.5681V19.04H83.5681V24.28H91.4881V21.6H94.2481ZM83.5681 11.04V16.28H88.8081V11.04H83.5681ZM102.896 27.04H97.4562V0.279998H102.896V27.04ZM114.12 24.4H111.48V19.04H108.8V13.72H106.12V8.28H111.56V13.6H114.24V18.96H116.8V8.28H122.24V13.72H119.56V21.72H116.92V29.72H114.24V32.4H108.8V26.96H114.12V24.4Z" fill="#FAFAFA"/>
</svg>
