<svg width="23" height="26" viewBox="0 0 23 26" fill="none" xmlns="http://www.w3.org/2000/svg">
<path d="M16.3883 21.3077H6.61173M16.3883 21.3077C17.2526 21.3077 18.0815 21.6967 18.6926 22.3891C19.3038 23.0816 19.6471 24.0207 19.6471 25H3.35289C3.35289 24.0207 3.69623 23.0816 4.30738 22.3891C4.91853 21.6967 5.74743 21.3077 6.61173 21.3077M16.3883 21.3077V17.1538C16.3883 16.3895 15.8419 15.7692 15.1662 15.7692H14.22M6.61173 21.3077V17.1538C6.61173 16.3895 7.15922 15.7692 7.8338 15.7692H8.78104M14.22 15.7692H8.78104M14.22 15.7692C13.6099 14.5753 13.2453 13.2409 13.1533 11.8652M8.78104 15.7692C9.39079 14.5752 9.75504 13.2408 9.84668 11.8652M13.1533 11.8652C14.2482 11.5789 15.269 11.0103 16.1384 10.2037M13.1533 11.8652C12.0654 12.1495 10.9346 12.1495 9.84668 11.8652M9.84668 11.8652C8.75214 11.5788 7.73064 11.0102 6.86158 10.2037M4.1676 3.44431C3.10087 3.62031 2.045 3.83446 1 4.08431C1.24224 5.69512 1.94895 7.16951 3.00956 8.27677C4.07017 9.38403 5.42483 10.0617 6.86158 10.2037M4.1676 3.44431V3.76923C4.1676 6.36369 5.21695 8.68 6.86158 10.2037M4.1676 3.44431V1.57969C6.56394 1.19692 9.01241 1 11.5 1C13.9887 1 16.4372 1.19692 18.8324 1.57846V3.44431M18.8324 3.44431V3.76923C18.8324 6.36369 17.7831 8.68 16.1384 10.2037M18.8324 3.44431C19.894 3.61933 20.9504 3.83277 22 4.08431C21.7578 5.69494 21.0513 7.16918 19.9909 8.27642C18.9305 9.38365 17.575 10.0614 16.1384 10.2037" stroke="white" stroke-width="2" stroke-linecap="round" stroke-linejoin="round"/>
</svg>
