<svg width="4" height="22" viewBox="0 0 4 22" fill="none" xmlns="http://www.w3.org/2000/svg">
<path d="M2 3.125C1.70163 3.125 1.41548 3.00647 1.20451 2.7955C0.993527 2.58452 0.875 2.29837 0.875 2C0.875 1.70163 0.993527 1.41548 1.20451 1.2045C1.41548 0.993526 1.70163 0.875 2 0.875C2.29837 0.875 2.58452 0.993526 2.79549 1.2045C3.00647 1.41548 3.125 1.70163 3.125 2C3.125 2.29837 3.00647 2.58452 2.79549 2.7955C2.58452 3.00647 2.29837 3.125 2 3.125ZM2 12.125C1.70163 12.125 1.41548 12.0065 1.20451 11.7955C0.993527 11.5845 0.875 11.2984 0.875 11C0.875 10.7016 0.993527 10.4155 1.20451 10.2045C1.41548 9.99353 1.70163 9.875 2 9.875C2.29837 9.875 2.58452 9.99353 2.79549 10.2045C3.00647 10.4155 3.125 10.7016 3.125 11C3.125 11.2984 3.00647 11.5845 2.79549 11.7955C2.58452 12.0065 2.29837 12.125 2 12.125ZM2 21.125C1.70163 21.125 1.41548 21.0065 1.20451 20.7955C0.993527 20.5845 0.875 20.2984 0.875 20C0.875 19.7016 0.993527 19.4155 1.20451 19.2045C1.41548 18.9935 1.70163 18.875 2 18.875C2.29837 18.875 2.58452 18.9935 2.79549 19.2045C3.00647 19.4155 3.125 19.7016 3.125 20C3.125 20.2984 3.00647 20.5845 2.79549 20.7955C2.58452 21.0065 2.29837 21.125 2 21.125Z" stroke="white" stroke-width="1.5" stroke-linecap="round" stroke-linejoin="round"/>
</svg>
