<svg width="110" height="52" viewBox="0 0 110 52" fill="none" xmlns="http://www.w3.org/2000/svg">
<rect y="6.5" width="3.25002" height="3.25002" fill="#AD6C29"/>
<rect x="3.25" y="3.25049" width="3.25002" height="3.25002" fill="#AD6C29"/>
<rect x="32.5" y="3.25049" width="3.25002" height="3.25002" fill="#AD6C29"/>
<rect x="32.5" width="3.25002" height="3.25002" fill="#AD6C29"/>
<rect x="35.75" width="3.25002" height="3.25002" fill="#AD6C29"/>
<rect x="39" width="3.25002" height="3.25002" fill="#AD6C29"/>
<rect x="42.25" width="3.25002" height="3.25002" fill="#AD6C29"/>
<rect x="6.50098" width="3.25002" height="3.25002" fill="#AD6C29"/>
<rect x="9.75" width="3.25002" height="3.25002" fill="#AD6C29"/>
<rect x="13" width="3.25002" height="3.25002" fill="#AD6C29"/>
<rect x="16.25" width="3.25002" height="3.25002" fill="#AD6C29"/>
<rect x="19.499" width="3.25002" height="3.25002" fill="#AD6C29"/>
<rect x="22.749" width="3.25002" height="3.25002" fill="#AD6C29"/>
<rect x="26.001" width="3.25002" height="3.25002" fill="#AD6C29"/>
<rect x="29.251" width="3.25002" height="3.25002" fill="#AD6C29"/>
<rect x="6.50098" width="3.25002" height="3.25002" fill="#AD6C29"/>
<rect x="9.75" width="3.25002" height="3.25002" fill="#AD6C29"/>
<rect x="13" width="3.25002" height="3.25002" fill="#AD6C29"/>
<rect x="16.25" width="3.25002" height="3.25002" fill="#AD6C29"/>
<rect x="19.499" width="3.25002" height="3.25002" fill="#AD6C29"/>
<rect x="22.749" width="3.25002" height="3.25002" fill="#AD6C29"/>
<rect x="26.001" width="3.25002" height="3.25002" fill="#AD6C29"/>
<rect x="29.251" width="3.25002" height="3.25002" fill="#AD6C29"/>
<rect x="6.50098" y="3.25049" width="3.25002" height="3.25002" fill="#FFE85E"/>
<rect x="3.25" y="13.0005" width="3.25002" height="3.25002" fill="#FFE85E"/>
<rect x="3.25" y="9.74951" width="3.25002" height="3.25002" fill="#FFE85E"/>
<rect x="19.499" y="3.25049" width="3.25002" height="3.25002" fill="#FFE85E"/>
<rect x="22.749" y="3.25049" width="3.25002" height="3.25002" fill="#FFE85E"/>
<rect x="26.001" y="3.25049" width="3.25002" height="3.25002" fill="#FFE85E"/>
<rect x="29.251" y="3.25049" width="3.25002" height="3.25002" fill="#FFE85E"/>
<rect x="32.5" y="3.25049" width="3.25002" height="3.25002" fill="#FFE85E"/>
<rect x="35.75" y="3.25049" width="3.25002" height="3.25002" fill="#FFE85E"/>
<rect x="42.25" y="3.25049" width="3.25002" height="3.25002" fill="#FFE85E"/>
<rect x="16.25" y="3.25049" width="3.25002" height="3.25002" fill="#FFE85E"/>
<rect x="9.75" y="3.25049" width="3.25002" height="3.25002" fill="#FFE85E"/>
<rect x="13" y="3.25049" width="3.25002" height="3.25002" fill="white"/>
<rect x="3.25" y="6.5" width="3.25002" height="3.25002" fill="white"/>
<rect x="16.25" y="3.25049" width="3.25002" height="3.25002" fill="white"/>
<rect x="19.499" y="3.25049" width="3.25002" height="3.25002" fill="white"/>
<rect x="22.749" y="3.25049" width="3.25002" height="3.25002" fill="white"/>
<rect x="39" y="3.25049" width="3.25002" height="3.25002" fill="white"/>
<rect x="6.50098" y="6.5" width="3.25002" height="3.25002" fill="#E09025"/>
<rect x="9.75" y="6.5" width="3.25002" height="3.25002" fill="#E09025"/>
<rect x="13" y="6.5" width="3.25002" height="3.25002" fill="#E09025"/>
<rect x="16.25" y="6.5" width="3.25002" height="3.25002" fill="#E09025"/>
<rect x="19.499" y="6.5" width="3.25002" height="3.25002" fill="#E09025"/>
<rect x="22.749" y="6.5" width="3.25002" height="3.25002" fill="#E09025"/>
<rect x="26.001" y="6.5" width="3.25002" height="3.25002" fill="#E09025"/>
<rect x="29.251" y="6.5" width="3.25002" height="3.25002" fill="#E09025"/>
<rect x="32.5" y="6.5" width="3.25002" height="3.25002" fill="#E09025"/>
<rect x="35.75" y="6.5" width="3.25002" height="3.25002" fill="#E09025"/>
<rect x="39" y="6.5" width="3.25002" height="3.25002" fill="#E09025"/>
<rect x="42.25" y="6.5" width="3.25002" height="3.25002" fill="#E09025"/>
<rect x="32.5" y="6.5" width="3.25002" height="3.25002" fill="#E09025"/>
<rect x="35.75" y="6.5" width="3.25002" height="3.25002" fill="#E09025"/>
<rect x="39" y="6.5" width="3.25002" height="3.25002" fill="#E09025"/>
<rect x="42.25" y="6.5" width="3.25002" height="3.25002" fill="#E09025"/>
<rect x="45.501" width="3.25002" height="3.25002" fill="#AD6C29"/>
<rect x="45.501" width="3.25002" height="3.25002" fill="#AD6C29"/>
<rect x="45.501" y="3.25049" width="3.25002" height="3.25002" fill="#FFE85E"/>
<rect x="45.501" y="6.5" width="3.25002" height="3.25002" fill="#E09025"/>
<rect x="103.251" y="3.25049" width="3.25002" height="3.25002" fill="#AD6C29"/>
<rect x="106.501" y="6.5" width="3.25002" height="3.25002" fill="#AD6C29"/>
<rect x="32.5" y="48.75" width="3.25002" height="3.25002" fill="#AD6C29"/>
<rect x="35.75" y="48.75" width="3.25002" height="3.25002" fill="#AD6C29"/>
<rect x="39" y="48.75" width="3.25002" height="3.25002" fill="#AD6C29"/>
<rect x="42.25" y="48.75" width="3.25002" height="3.25002" fill="#AD6C29"/>
<rect x="6.50098" y="48.75" width="3.25002" height="3.25002" fill="#AD6C29"/>
<rect x="9.75" y="48.75" width="3.25002" height="3.25002" fill="#AD6C29"/>
<rect x="13" y="48.75" width="3.25002" height="3.25002" fill="#AD6C29"/>
<rect x="16.25" y="48.75" width="3.25002" height="3.25002" fill="#AD6C29"/>
<rect x="19.499" y="48.75" width="3.25002" height="3.25002" fill="#AD6C29"/>
<rect x="22.749" y="48.75" width="3.25002" height="3.25002" fill="#AD6C29"/>
<rect x="26.001" y="48.75" width="3.25002" height="3.25002" fill="#AD6C29"/>
<rect x="29.251" y="48.75" width="3.25002" height="3.25002" fill="#AD6C29"/>
<rect x="6.50098" y="48.75" width="3.25002" height="3.25002" fill="#AD6C29"/>
<rect x="9.75" y="48.75" width="3.25002" height="3.25002" fill="#AD6C29"/>
<rect x="13" y="48.75" width="3.25002" height="3.25002" fill="#AD6C29"/>
<rect x="16.25" y="48.75" width="3.25002" height="3.25002" fill="#AD6C29"/>
<rect x="19.499" y="48.75" width="3.25002" height="3.25002" fill="#AD6C29"/>
<rect x="22.749" y="48.75" width="3.25002" height="3.25002" fill="#AD6C29"/>
<rect x="26.001" y="48.75" width="3.25002" height="3.25002" fill="#AD6C29"/>
<rect x="29.251" y="48.75" width="3.25002" height="3.25002" fill="#AD6C29"/>
<rect x="45.501" y="48.75" width="3.25002" height="3.25002" fill="#AD6C29"/>
<rect x="45.501" y="48.75" width="3.25002" height="3.25002" fill="#AD6C29"/>
<rect x="48.001" y="48.75" width="3.25002" height="3.25002" fill="#AD6C29"/>
<rect x="51.2529" y="48.75" width="3.25002" height="3.25002" fill="#AD6C29"/>
<rect x="90.252" y="48.75" width="3.25002" height="3.25002" fill="#AD6C29"/>
<rect x="93.501" y="48.75" width="3.25002" height="3.25002" fill="#AD6C29"/>
<rect x="96.751" y="48.75" width="3.25002" height="3.25002" fill="#AD6C29"/>
<rect x="100.002" y="48.75" width="3.25002" height="3.25002" fill="#AD6C29"/>
<rect x="48.001" y="48.75" width="3.25002" height="3.25002" fill="#AD6C29"/>
<rect x="51.2529" y="48.75" width="3.25002" height="3.25002" fill="#AD6C29"/>
<rect x="90.252" y="48.75" width="3.25002" height="3.25002" fill="#AD6C29"/>
<rect x="93.501" y="48.75" width="3.25002" height="3.25002" fill="#AD6C29"/>
<rect x="96.751" y="48.75" width="3.25002" height="3.25002" fill="#AD6C29"/>
<rect x="100.002" y="48.75" width="3.25002" height="3.25002" fill="#AD6C29"/>
<rect x="48.001" width="3.25002" height="3.25002" fill="#AD6C29"/>
<rect x="51.2529" width="3.25002" height="3.25002" fill="#AD6C29"/>
<rect x="90.252" width="3.25002" height="3.25002" fill="#AD6C29"/>
<rect x="93.501" width="3.25002" height="3.25002" fill="#AD6C29"/>
<rect x="96.751" width="3.25002" height="3.25002" fill="#AD6C29"/>
<rect x="100.002" width="3.25002" height="3.25002" fill="#AD6C29"/>
<rect x="48.001" width="3.25002" height="3.25002" fill="#AD6C29"/>
<rect x="51.2529" width="3.25002" height="3.25002" fill="#AD6C29"/>
<rect x="90.252" width="3.25002" height="3.25002" fill="#AD6C29"/>
<rect x="93.501" width="3.25002" height="3.25002" fill="#AD6C29"/>
<rect x="96.751" width="3.25002" height="3.25002" fill="#AD6C29"/>
<rect x="100.002" width="3.25002" height="3.25002" fill="#AD6C29"/>
<rect x="90.252" y="3.25049" width="3.25002" height="3.25002" fill="#FFE85E"/>
<rect x="93.501" y="3.25049" width="3.25002" height="3.25002" fill="#FFE85E"/>
<rect x="96.751" y="3.25049" width="3.25002" height="3.25002" fill="#FFE85E"/>
<rect x="100.002" y="3.25049" width="3.25002" height="3.25002" fill="#FFE85E"/>
<rect x="103.251" y="6.5" width="3.25002" height="3.25002" fill="#FFE85E"/>
<rect x="51.2529" y="3.25049" width="3.25002" height="3.25002" fill="#FFE85E"/>
<rect x="54.499" y="3.25049" width="3.25002" height="3.25002" fill="#FFE85E"/>
<rect x="56.126" y="3.25049" width="3.25002" height="3.25002" fill="#FFE85E"/>
<rect x="56.126" y="3.25049" width="3.25002" height="3.25002" fill="#FFE85E"/>
<rect x="57.751" y="3.25049" width="3.25002" height="3.25002" fill="#FFE85E"/>
<rect x="48.001" y="3.25049" width="3.25002" height="3.25002" fill="#FFE85E"/>
<rect x="48.001" y="6.5" width="3.25002" height="3.25002" fill="#E09025"/>
<rect x="51.2529" y="6.5" width="3.25002" height="3.25002" fill="#E09025"/>
<rect x="90.252" y="6.5" width="3.25002" height="3.25002" fill="#E09025"/>
<rect x="93.501" y="6.5" width="3.25002" height="3.25002" fill="#E09025"/>
<rect x="96.751" y="6.5" width="3.25002" height="3.25002" fill="#E09025"/>
<rect x="100.002" y="6.5" width="3.25002" height="3.25002" fill="#E09025"/>
<rect y="9.74951" width="3.25002" height="3.25002" fill="#AD6C29"/>
<rect x="6.50098" y="9.74951" width="3.25002" height="3.25002" fill="#E09025"/>
<rect x="32.5" y="9.74951" width="3.25002" height="3.25002" fill="#E09025"/>
<rect x="35.75" y="9.74951" width="3.25002" height="3.25002" fill="#E09025"/>
<rect x="39" y="9.74951" width="3.25002" height="3.25002" fill="#E09025"/>
<rect x="42.25" y="9.74951" width="3.25002" height="3.25002" fill="#E09025"/>
<rect x="32.5" y="9.74951" width="3.25002" height="3.25002" fill="#E09025"/>
<rect x="35.75" y="9.74951" width="3.25002" height="3.25002" fill="#E09025"/>
<rect x="39" y="9.74951" width="3.25002" height="3.25002" fill="#E09025"/>
<rect x="42.25" y="9.74951" width="3.25002" height="3.25002" fill="#E09025"/>
<rect x="45.501" y="9.74951" width="3.25002" height="3.25002" fill="#E09025"/>
<rect x="106.501" y="9.74951" width="3.25002" height="3.25002" fill="#AD6C29"/>
<rect x="48.001" y="9.74951" width="3.25002" height="3.25002" fill="#E09025"/>
<rect x="51.2529" y="9.74951" width="3.25002" height="3.25002" fill="#E09025"/>
<rect x="90.252" y="9.74951" width="3.25002" height="3.25002" fill="#E09025"/>
<rect x="93.501" y="9.74951" width="3.25002" height="3.25002" fill="#E09025"/>
<rect x="96.751" y="9.74951" width="3.25002" height="3.25002" fill="#E09025"/>
<rect x="100.002" y="9.74951" width="3.25002" height="3.25002" fill="#E09025"/>
<rect y="13.0005" width="3.25002" height="3.25002" fill="#AD6C29"/>
<rect x="6.50098" y="13.0005" width="3.25002" height="3.25002" fill="#E09025"/>
<rect x="32.5" y="13.0005" width="3.25002" height="3.25002" fill="#E09025"/>
<rect x="35.75" y="13.0005" width="3.25002" height="3.25002" fill="#E09025"/>
<rect x="39" y="13.0005" width="3.25002" height="3.25002" fill="#E09025"/>
<rect x="42.25" y="13.0005" width="3.25002" height="3.25002" fill="#E09025"/>
<rect x="32.5" y="13.0005" width="3.25002" height="3.25002" fill="#E09025"/>
<rect x="35.75" y="13.0005" width="3.25002" height="3.25002" fill="#E09025"/>
<rect x="39" y="13.0005" width="3.25002" height="3.25002" fill="#E09025"/>
<rect x="42.25" y="13.0005" width="3.25002" height="3.25002" fill="#E09025"/>
<rect x="45.501" y="13.0005" width="3.25002" height="3.25002" fill="#E09025"/>
<rect x="106.501" y="13.0005" width="3.25002" height="3.25002" fill="#AD6C29"/>
<rect x="48.001" y="13.0005" width="3.25002" height="3.25002" fill="#E09025"/>
<rect x="51.2529" y="13.0005" width="3.25002" height="3.25002" fill="#E09025"/>
<rect x="90.252" y="13.0005" width="3.25002" height="3.25002" fill="#E09025"/>
<rect x="93.501" y="13.0005" width="3.25002" height="3.25002" fill="#E09025"/>
<rect x="96.751" y="13.0005" width="3.25002" height="3.25002" fill="#E09025"/>
<rect x="100.002" y="13.0005" width="3.25002" height="3.25002" fill="#E09025"/>
<rect y="16.25" width="3.25002" height="3.25002" fill="#AD6C29"/>
<rect x="3.25" y="16.25" width="3.25002" height="3.25002" fill="white"/>
<rect x="6.50098" y="16.25" width="3.25002" height="3.25002" fill="#E09025"/>
<rect x="32.5" y="16.25" width="3.25002" height="3.25002" fill="#E09025"/>
<rect x="35.75" y="16.25" width="3.25002" height="3.25002" fill="#E09025"/>
<rect x="39" y="16.25" width="3.25002" height="3.25002" fill="#E09025"/>
<rect x="42.25" y="16.25" width="3.25002" height="3.25002" fill="#E09025"/>
<rect x="32.5" y="16.25" width="3.25002" height="3.25002" fill="#E09025"/>
<rect x="35.75" y="16.25" width="3.25002" height="3.25002" fill="#E09025"/>
<rect x="39" y="16.25" width="3.25002" height="3.25002" fill="#E09025"/>
<rect x="42.25" y="16.25" width="3.25002" height="3.25002" fill="#E09025"/>
<rect x="45.501" y="16.25" width="3.25002" height="3.25002" fill="#E09025"/>
<rect x="106.501" y="16.25" width="3.25002" height="3.25002" fill="#AD6C29"/>
<rect x="48.001" y="16.25" width="3.25002" height="3.25002" fill="#E09025"/>
<rect x="51.2529" y="16.25" width="3.25002" height="3.25002" fill="#E09025"/>
<rect x="90.252" y="16.25" width="3.25002" height="3.25002" fill="#E09025"/>
<rect x="93.501" y="16.25" width="3.25002" height="3.25002" fill="#E09025"/>
<rect x="96.751" y="16.25" width="3.25002" height="3.25002" fill="#E09025"/>
<rect x="100.002" y="16.25" width="3.25002" height="3.25002" fill="#E09025"/>
<rect y="19.5" width="3.25002" height="3.25002" fill="#AD6C29"/>
<rect x="3.25" y="19.5" width="3.25002" height="3.25002" fill="white"/>
<rect x="6.50098" y="19.5" width="3.25002" height="3.25002" fill="#E09025"/>
<rect x="32.5" y="19.5" width="3.25002" height="3.25002" fill="#E09025"/>
<rect x="35.75" y="19.5" width="3.25002" height="3.25002" fill="#E09025"/>
<rect x="39" y="19.5" width="3.25002" height="3.25002" fill="#E09025"/>
<rect x="42.25" y="19.5" width="3.25002" height="3.25002" fill="#E09025"/>
<rect x="32.5" y="19.5" width="3.25002" height="3.25002" fill="#E09025"/>
<rect x="35.75" y="19.5" width="3.25002" height="3.25002" fill="#E09025"/>
<rect x="39" y="19.5" width="3.25002" height="3.25002" fill="#E09025"/>
<rect x="42.25" y="19.5" width="3.25002" height="3.25002" fill="#E09025"/>
<rect x="45.501" y="19.5" width="3.25002" height="3.25002" fill="#E09025"/>
<rect x="106.501" y="19.5" width="3.25002" height="3.25002" fill="#AD6C29"/>
<rect x="48.001" y="19.5" width="3.25002" height="3.25002" fill="#E09025"/>
<rect x="51.2529" y="19.5" width="3.25002" height="3.25002" fill="#E09025"/>
<rect x="90.252" y="19.5" width="3.25002" height="3.25002" fill="#E09025"/>
<rect x="93.501" y="19.5" width="3.25002" height="3.25002" fill="#E09025"/>
<rect x="96.751" y="19.5" width="3.25002" height="3.25002" fill="#E09025"/>
<rect x="100.002" y="19.5" width="3.25002" height="3.25002" fill="#E09025"/>
<rect y="22.7505" width="3.25002" height="3.25002" fill="#AD6C29"/>
<rect x="3.25" y="22.7505" width="3.25002" height="3.25002" fill="white"/>
<rect x="6.50098" y="22.7505" width="3.25002" height="3.25002" fill="#E09025"/>
<rect x="32.5" y="22.7505" width="3.25002" height="3.25002" fill="#E09025"/>
<rect x="35.75" y="22.7505" width="3.25002" height="3.25002" fill="#E09025"/>
<rect x="39" y="22.7505" width="3.25002" height="3.25002" fill="#E09025"/>
<rect x="42.25" y="22.7505" width="3.25002" height="3.25002" fill="#E09025"/>
<rect x="32.5" y="22.7505" width="3.25002" height="3.25002" fill="#E09025"/>
<rect x="35.75" y="22.7505" width="3.25002" height="3.25002" fill="#E09025"/>
<rect x="39" y="22.7505" width="3.25002" height="3.25002" fill="#E09025"/>
<rect x="42.25" y="22.7505" width="3.25002" height="3.25002" fill="#E09025"/>
<rect x="45.501" y="22.7505" width="3.25002" height="3.25002" fill="#E09025"/>
<rect x="106.501" y="22.7505" width="3.25002" height="3.25002" fill="#AD6C29"/>
<rect x="48.001" y="22.7505" width="3.25002" height="3.25002" fill="#E09025"/>
<rect x="51.2529" y="22.7505" width="3.25002" height="3.25002" fill="#E09025"/>
<rect x="90.252" y="22.7505" width="3.25002" height="3.25002" fill="#E09025"/>
<rect x="93.501" y="22.7505" width="3.25002" height="3.25002" fill="#E09025"/>
<rect x="96.751" y="22.7505" width="3.25002" height="3.25002" fill="#E09025"/>
<rect x="100.002" y="22.7505" width="3.25002" height="3.25002" fill="#E09025"/>
<rect y="26" width="3.25002" height="3.25002" fill="#AD6C29"/>
<rect x="3.25" y="26" width="3.25002" height="3.25002" fill="white"/>
<rect x="6.50098" y="26" width="3.25002" height="3.25002" fill="#E09025"/>
<rect x="3.25" y="16.25" width="3.25002" height="3.25002" fill="#E09025"/>
<rect x="3.25" y="19.5" width="3.25002" height="3.25002" fill="#E09025"/>
<rect x="3.25" y="22.7505" width="3.25002" height="3.25002" fill="#E09025"/>
<rect x="3.25" y="26" width="3.25002" height="3.25002" fill="#E09025"/>
<rect x="103.251" y="9.74951" width="3.25002" height="3.25002" fill="#E09025"/>
<rect x="103.251" y="13.0005" width="3.25002" height="3.25002" fill="#E09025"/>
<rect x="103.251" y="16.25" width="3.25002" height="3.25002" fill="#E09025"/>
<rect x="103.251" y="19.5" width="3.25002" height="3.25002" fill="#E09025"/>
<rect x="103.251" y="22.7505" width="3.25002" height="3.25002" fill="#E09025"/>
<rect x="103.251" y="26" width="3.25002" height="3.25002" fill="#E09025"/>
<rect x="32.5" y="26" width="3.25002" height="3.25002" fill="#E09025"/>
<rect x="35.75" y="26" width="3.25002" height="3.25002" fill="#E09025"/>
<rect x="39" y="26" width="3.25002" height="3.25002" fill="#E09025"/>
<rect x="42.25" y="26" width="3.25002" height="3.25002" fill="#E09025"/>
<rect x="32.5" y="26" width="3.25002" height="3.25002" fill="#E09025"/>
<rect x="35.75" y="26" width="3.25002" height="3.25002" fill="#E09025"/>
<rect x="39" y="26" width="3.25002" height="3.25002" fill="#E09025"/>
<rect x="42.25" y="26" width="3.25002" height="3.25002" fill="#E09025"/>
<rect x="45.501" y="26" width="3.25002" height="3.25002" fill="#E09025"/>
<rect x="106.501" y="26" width="3.25002" height="3.25002" fill="#AD6C29"/>
<rect x="48.001" y="26" width="3.25002" height="3.25002" fill="#E09025"/>
<rect x="51.2529" y="26" width="3.25002" height="3.25002" fill="#E09025"/>
<rect x="90.252" y="26" width="3.25002" height="3.25002" fill="#E09025"/>
<rect x="93.501" y="26" width="3.25002" height="3.25002" fill="#E09025"/>
<rect x="96.751" y="26" width="3.25002" height="3.25002" fill="#E09025"/>
<rect x="100.002" y="26" width="3.25002" height="3.25002" fill="#E09025"/>
<rect y="29.249" width="3.25002" height="3.25002" fill="#AD6C29"/>
<rect x="3.25" y="29.249" width="3.25002" height="3.25002" fill="white"/>
<rect x="6.50098" y="29.249" width="3.25002" height="3.25002" fill="#E09025"/>
<rect x="32.5" y="29.249" width="3.25002" height="3.25002" fill="#E09025"/>
<rect x="35.75" y="29.249" width="3.25002" height="3.25002" fill="#E09025"/>
<rect x="39" y="29.249" width="3.25002" height="3.25002" fill="#E09025"/>
<rect x="42.25" y="29.249" width="3.25002" height="3.25002" fill="#E09025"/>
<rect x="32.5" y="29.249" width="3.25002" height="3.25002" fill="#E09025"/>
<rect x="35.75" y="29.249" width="3.25002" height="3.25002" fill="#E09025"/>
<rect x="39" y="29.249" width="3.25002" height="3.25002" fill="#E09025"/>
<rect x="42.25" y="29.249" width="3.25002" height="3.25002" fill="#E09025"/>
<rect x="45.501" y="29.249" width="3.25002" height="3.25002" fill="#E09025"/>
<rect x="106.501" y="29.249" width="3.25002" height="3.25002" fill="#AD6C29"/>
<rect x="48.001" y="29.249" width="3.25002" height="3.25002" fill="#E09025"/>
<rect x="51.2529" y="29.249" width="3.25002" height="3.25002" fill="#E09025"/>
<rect x="90.252" y="29.249" width="3.25002" height="3.25002" fill="#E09025"/>
<rect x="93.501" y="29.249" width="3.25002" height="3.25002" fill="#E09025"/>
<rect x="96.751" y="29.249" width="3.25002" height="3.25002" fill="#E09025"/>
<rect x="100.002" y="29.249" width="3.25002" height="3.25002" fill="#E09025"/>
<rect y="32.5" width="3.25002" height="3.25002" fill="#AD6C29"/>
<rect x="3.25" y="32.5" width="3.25002" height="3.25002" fill="white"/>
<rect x="6.50098" y="32.5" width="3.25002" height="3.25002" fill="#E09025"/>
<rect x="32.5" y="32.5" width="3.25002" height="3.25002" fill="#E09025"/>
<rect x="35.75" y="32.5" width="3.25002" height="3.25002" fill="#E09025"/>
<rect x="39" y="32.5" width="3.25002" height="3.25002" fill="#E09025"/>
<rect x="42.25" y="32.5" width="3.25002" height="3.25002" fill="#E09025"/>
<rect x="32.5" y="32.5" width="3.25002" height="3.25002" fill="#E09025"/>
<rect x="35.75" y="32.5" width="3.25002" height="3.25002" fill="#E09025"/>
<rect x="39" y="32.5" width="3.25002" height="3.25002" fill="#E09025"/>
<rect x="42.25" y="32.5" width="3.25002" height="3.25002" fill="#E09025"/>
<rect x="45.501" y="32.5" width="3.25002" height="3.25002" fill="#E09025"/>
<rect x="106.501" y="32.5" width="3.25002" height="3.25002" fill="#AD6C29"/>
<rect x="48.001" y="32.5" width="3.25002" height="3.25002" fill="#E09025"/>
<rect x="51.2529" y="32.5" width="3.25002" height="3.25002" fill="#E09025"/>
<rect x="90.252" y="32.5" width="3.25002" height="3.25002" fill="#E09025"/>
<rect x="93.501" y="32.5" width="3.25002" height="3.25002" fill="#E09025"/>
<rect x="96.751" y="32.5" width="3.25002" height="3.25002" fill="#E09025"/>
<rect x="100.002" y="32.5" width="3.25002" height="3.25002" fill="#E09025"/>
<rect y="35.7495" width="3.25002" height="3.25002" fill="#AD6C29"/>
<rect x="3.25" y="35.7495" width="3.25002" height="3.25002" fill="white"/>
<rect x="6.50098" y="35.7495" width="3.25002" height="3.25002" fill="#E09025"/>
<rect x="3.25" y="29.249" width="3.25002" height="3.25002" fill="#E09025"/>
<rect x="3.25" y="32.5" width="3.25002" height="3.25002" fill="#E09025"/>
<rect x="3.25" y="35.7495" width="3.25002" height="3.25002" fill="#E09025"/>
<rect x="103.251" y="29.249" width="3.25002" height="3.25002" fill="#E09025"/>
<rect x="103.251" y="32.5" width="3.25002" height="3.25002" fill="#E09025"/>
<rect x="103.251" y="35.7495" width="3.25002" height="3.25002" fill="#E09025"/>
<rect x="32.5" y="35.7495" width="3.25002" height="3.25002" fill="#E09025"/>
<rect x="35.75" y="35.7495" width="3.25002" height="3.25002" fill="#E09025"/>
<rect x="39" y="35.7495" width="3.25002" height="3.25002" fill="#E09025"/>
<rect x="42.25" y="35.7495" width="3.25002" height="3.25002" fill="#E09025"/>
<rect x="32.5" y="35.7495" width="3.25002" height="3.25002" fill="#E09025"/>
<rect x="35.75" y="35.7495" width="3.25002" height="3.25002" fill="#E09025"/>
<rect x="39" y="35.7495" width="3.25002" height="3.25002" fill="#E09025"/>
<rect x="42.25" y="35.7495" width="3.25002" height="3.25002" fill="#E09025"/>
<rect x="45.501" y="35.7495" width="3.25002" height="3.25002" fill="#E09025"/>
<rect x="106.501" y="35.7495" width="3.25002" height="3.25002" fill="#AD6C29"/>
<rect x="48.001" y="35.7495" width="3.25002" height="3.25002" fill="#E09025"/>
<rect x="51.2529" y="35.7495" width="3.25002" height="3.25002" fill="#E09025"/>
<rect x="90.252" y="35.7495" width="3.25002" height="3.25002" fill="#E09025"/>
<rect x="93.501" y="35.7495" width="3.25002" height="3.25002" fill="#E09025"/>
<rect x="96.751" y="35.7495" width="3.25002" height="3.25002" fill="#E09025"/>
<rect x="100.002" y="35.7495" width="3.25002" height="3.25002" fill="#E09025"/>
<rect y="39.0005" width="3.25002" height="3.25002" fill="#AD6C29"/>
<rect x="3.25" y="39.0005" width="3.25002" height="3.25002" fill="white"/>
<rect x="6.50098" y="39.0005" width="3.25002" height="3.25002" fill="#E09025"/>
<rect x="32.5" y="39.0005" width="3.25002" height="3.25002" fill="#E09025"/>
<rect x="35.75" y="39.0005" width="3.25002" height="3.25002" fill="#E09025"/>
<rect x="39" y="39.0005" width="3.25002" height="3.25002" fill="#E09025"/>
<rect x="42.25" y="39.0005" width="3.25002" height="3.25002" fill="#E09025"/>
<rect x="32.5" y="39.0005" width="3.25002" height="3.25002" fill="#E09025"/>
<rect x="35.75" y="39.0005" width="3.25002" height="3.25002" fill="#E09025"/>
<rect x="39" y="39.0005" width="3.25002" height="3.25002" fill="#E09025"/>
<rect x="42.25" y="39.0005" width="3.25002" height="3.25002" fill="#E09025"/>
<rect x="45.501" y="39.0005" width="3.25002" height="3.25002" fill="#E09025"/>
<rect x="106.501" y="39.0005" width="3.25002" height="3.25002" fill="#AD6C29"/>
<rect x="48.001" y="39.0005" width="3.25002" height="3.25002" fill="#E09025"/>
<rect x="51.2529" y="39.0005" width="3.25002" height="3.25002" fill="#E09025"/>
<rect x="90.252" y="39.0005" width="3.25002" height="3.25002" fill="#E09025"/>
<rect x="93.501" y="39.0005" width="3.25002" height="3.25002" fill="#E09025"/>
<rect x="96.751" y="39.0005" width="3.25002" height="3.25002" fill="#E09025"/>
<rect x="100.002" y="39.0005" width="3.25002" height="3.25002" fill="#E09025"/>
<rect y="42.251" width="3.25002" height="3.25002" fill="#AD6C29"/>
<rect x="3.25" y="42.251" width="3.25002" height="3.25002" fill="white"/>
<rect x="6.50098" y="42.251" width="3.25002" height="3.25002" fill="#E09025"/>
<rect x="9.75" y="42.251" width="3.25002" height="3.25002" fill="#E09025"/>
<rect x="26.001" y="42.251" width="3.25002" height="3.25002" fill="#E09025"/>
<rect x="29.251" y="42.251" width="3.25002" height="3.25002" fill="#E09025"/>
<rect x="3.25" y="39.0005" width="3.25002" height="3.25002" fill="#E09025"/>
<rect x="3.25" y="42.251" width="3.25002" height="3.25002" fill="#E09025"/>
<rect x="103.251" y="39.0005" width="3.25002" height="3.25002" fill="#E09025"/>
<rect x="103.251" y="42.251" width="3.25002" height="3.25002" fill="#E09025"/>
<rect x="32.5" y="42.251" width="3.25002" height="3.25002" fill="#E09025"/>
<rect x="35.75" y="42.251" width="3.25002" height="3.25002" fill="#E09025"/>
<rect x="39" y="42.251" width="3.25002" height="3.25002" fill="#E09025"/>
<rect x="42.25" y="42.251" width="3.25002" height="3.25002" fill="#E09025"/>
<rect x="32.5" y="42.251" width="3.25002" height="3.25002" fill="#E09025"/>
<rect x="35.75" y="42.251" width="3.25002" height="3.25002" fill="#E09025"/>
<rect x="39" y="42.251" width="3.25002" height="3.25002" fill="#E09025"/>
<rect x="42.25" y="42.251" width="3.25002" height="3.25002" fill="#E09025"/>
<rect x="45.501" y="42.251" width="3.25002" height="3.25002" fill="#E09025"/>
<rect x="106.501" y="42.251" width="3.25002" height="3.25002" fill="#AD6C29"/>
<rect x="48.001" y="42.251" width="3.25002" height="3.25002" fill="#E09025"/>
<rect x="51.2529" y="42.251" width="3.25002" height="3.25002" fill="#E09025"/>
<rect x="90.252" y="42.251" width="3.25002" height="3.25002" fill="#E09025"/>
<rect x="93.501" y="42.251" width="3.25002" height="3.25002" fill="#E09025"/>
<rect x="96.751" y="42.251" width="3.25002" height="3.25002" fill="#E09025"/>
<rect x="100.002" y="42.251" width="3.25002" height="3.25002" fill="#E09025"/>
<rect x="13" y="9.74951" width="3.25002" height="3.25002" fill="#E09025"/>
<rect x="22.749" y="9.74951" width="3.25002" height="3.25002" fill="#E09025"/>
<rect x="13" y="19.5" width="3.25002" height="3.25002" fill="#E09025"/>
<rect x="16.25" y="19.5" width="3.25002" height="3.25002" fill="#E09025"/>
<rect x="19.499" y="19.5" width="3.25002" height="3.25002" fill="#E09025"/>
<rect x="22.749" y="19.5" width="3.25002" height="3.25002" fill="#E09025"/>
<rect x="26.001" y="22.7505" width="3.25002" height="3.25002" fill="#E09025"/>
<rect x="6.50098" y="9.74951" width="3.25002" height="3.25002" fill="#E09025"/>
<rect x="9.75" y="9.74951" width="3.25002" height="3.25002" fill="#E09025"/>
<rect x="26.001" y="9.74951" width="3.25002" height="3.25002" fill="#E09025"/>
<rect x="29.251" y="9.74951" width="3.25002" height="3.25002" fill="#E09025"/>
<rect x="6.50098" y="13.0005" width="3.25002" height="3.25002" fill="#E09025"/>
<rect x="29.251" y="13.0005" width="3.25002" height="3.25002" fill="#E09025"/>
<rect x="16.25" y="16.25" width="3.25002" height="3.25002" fill="#E09025"/>
<rect x="19.499" y="16.25" width="3.25002" height="3.25002" fill="#E09025"/>
<rect x="9.75" y="19.5" width="3.25002" height="3.25002" fill="#E09025"/>
<rect x="26.001" y="19.5" width="3.25002" height="3.25002" fill="#E09025"/>
<rect x="9.75" y="22.7505" width="3.25002" height="3.25002" fill="#E09025"/>
<rect x="13" y="22.7505" width="3.25002" height="3.25002" fill="#E09025"/>
<rect x="16.25" y="22.7505" width="3.25002" height="3.25002" fill="#E09025"/>
<rect x="22.749" y="22.7505" width="3.25002" height="3.25002" fill="#E09025"/>
<rect x="16.25" y="26" width="3.25002" height="3.25002" fill="#E09025"/>
<rect x="19.499" y="26" width="3.25002" height="3.25002" fill="#E09025"/>
<rect x="6.50098" y="22.7505" width="3.25002" height="3.25002" fill="#9E5101"/>
<rect x="6.50098" y="19.5" width="3.25002" height="3.25002" fill="#9E5101"/>
<rect x="6.50098" y="22.7505" width="3.25002" height="3.25002" fill="#9E5101"/>
<rect x="6.50098" y="26" width="3.25002" height="3.25002" fill="#9E5101"/>
<rect x="9.75" y="26" width="3.25002" height="3.25002" fill="#9E5101"/>
<rect x="9.75" y="22.7505" width="3.25002" height="3.25002" fill="#9E5101"/>
<rect x="16.25" y="26" width="3.25002" height="3.25002" fill="#9E5101"/>
<rect x="19.499" y="26" width="3.25002" height="3.25002" fill="#9E5101"/>
<rect x="13" y="26" width="3.25002" height="3.25002" fill="#9E5101"/>
<rect x="6.50098" y="16.25" width="3.25002" height="3.25002" fill="#D88500"/>
<rect x="9.75" y="13.0005" width="3.25002" height="3.25002" fill="#D88500"/>
<rect x="13" y="13.0005" width="3.25002" height="3.25002" fill="#D88500"/>
<rect x="13" y="9.74951" width="3.25002" height="3.25002" fill="#D88500"/>
<rect x="16.25" y="9.74951" width="3.25002" height="3.25002" fill="#D88500"/>
<rect x="19.499" y="9.74951" width="3.25002" height="3.25002" fill="#D88500"/>
<rect x="22.749" y="13.0005" width="3.25002" height="3.25002" fill="#D88500"/>
<rect x="22.749" y="9.74951" width="3.25002" height="3.25002" fill="#D88500"/>
<rect x="26.001" y="13.0005" width="3.25002" height="3.25002" fill="#D88500"/>
<rect x="29.251" y="16.25" width="3.25002" height="3.25002" fill="#D88500"/>
<rect x="26.001" y="22.7505" width="3.25002" height="3.25002" fill="#D88500"/>
<rect x="26.001" y="26" width="3.25002" height="3.25002" fill="#D88500"/>
<rect x="22.749" y="26" width="3.25002" height="3.25002" fill="#D88500"/>
<rect x="22.749" y="42.251" width="3.25002" height="3.25002" fill="#E09025"/>
<rect x="13" y="42.251" width="3.25002" height="3.25002" fill="#E09025"/>
<rect x="16.25" y="42.251" width="3.25002" height="3.25002" fill="#9E5101"/>
<rect x="19.499" y="42.251" width="3.25002" height="3.25002" fill="#9E5101"/>
<rect x="13" y="42.251" width="3.25002" height="3.25002" fill="#9E5101"/>
<rect x="19.499" y="42.251" width="3.25002" height="3.25002" fill="#9E5101"/>
<rect x="22.749" y="42.251" width="3.25002" height="3.25002" fill="#D88500"/>
<rect x="3.25" y="45.5" width="3.25002" height="3.25002" fill="#AD6C29"/>
<rect x="6.50098" y="45.5" width="3.25002" height="3.25002" fill="#E09025"/>
<rect x="9.75" y="45.5" width="3.25002" height="3.25002" fill="#E09025"/>
<rect x="26.001" y="45.5" width="3.25002" height="3.25002" fill="#E09025"/>
<rect x="29.251" y="45.5" width="3.25002" height="3.25002" fill="#E09025"/>
<rect x="32.5" y="45.5" width="3.25002" height="3.25002" fill="#E09025"/>
<rect x="35.75" y="45.5" width="3.25002" height="3.25002" fill="#E09025"/>
<rect x="39" y="45.5" width="3.25002" height="3.25002" fill="#E09025"/>
<rect x="42.25" y="45.5" width="3.25002" height="3.25002" fill="#E09025"/>
<rect x="32.5" y="45.5" width="3.25002" height="3.25002" fill="#E09025"/>
<rect x="35.75" y="45.5" width="3.25002" height="3.25002" fill="#E09025"/>
<rect x="13" y="45.5" width="3.25002" height="3.25002" fill="#E09025"/>
<rect x="16.25" y="45.5" width="3.25002" height="3.25002" fill="#E09025"/>
<rect x="19.499" y="45.5" width="3.25002" height="3.25002" fill="#E09025"/>
<rect x="22.749" y="45.5" width="3.25002" height="3.25002" fill="#E09025"/>
<rect x="19.499" y="45.5" width="3.25002" height="3.25002" fill="#E09025"/>
<rect x="22.749" y="45.5" width="3.25002" height="3.25002" fill="#E09025"/>
<rect x="39" y="45.5" width="3.25002" height="3.25002" fill="#E09025"/>
<rect x="42.25" y="45.5" width="3.25002" height="3.25002" fill="#E09025"/>
<rect x="45.501" y="45.5" width="3.25002" height="3.25002" fill="#E09025"/>
<rect x="103.251" y="45.5" width="3.25002" height="3.25002" fill="#AD6C29"/>
<rect x="48.001" y="45.5" width="3.25002" height="3.25002" fill="#E09025"/>
<rect x="51.2529" y="45.5" width="3.25002" height="3.25002" fill="#E09025"/>
<rect x="61.001" y="3.25049" width="3.25002" height="3.25002" fill="white"/>
<rect x="64.25" y="3.25049" width="3.25002" height="3.25002" fill="white"/>
<rect x="54.499" width="3.25002" height="3.25002" fill="#AD6C29"/>
<rect x="57.751" width="3.25002" height="3.25002" fill="#AD6C29"/>
<rect x="61.001" width="3.25002" height="3.25002" fill="#AD6C29"/>
<rect x="64.25" width="3.25002" height="3.25002" fill="#AD6C29"/>
<rect x="54.499" y="48.75" width="3.25002" height="3.25002" fill="#AD6C29"/>
<rect x="57.751" y="48.75" width="3.25002" height="3.25002" fill="#AD6C29"/>
<rect x="61.001" y="48.75" width="3.25002" height="3.25002" fill="#AD6C29"/>
<rect x="64.25" y="48.75" width="3.25002" height="3.25002" fill="#AD6C29"/>
<rect x="67.502" y="48.75" width="3.25002" height="3.25002" fill="#AD6C29"/>
<rect x="70.751" y="48.75" width="3.25002" height="3.25002" fill="#AD6C29"/>
<rect x="74.001" y="48.75" width="3.25002" height="3.25002" fill="#AD6C29"/>
<rect x="77.251" y="48.75" width="3.25002" height="3.25002" fill="#AD6C29"/>
<rect x="67.502" y="48.75" width="3.25002" height="3.25002" fill="#AD6C29"/>
<rect x="70.751" y="48.75" width="3.25002" height="3.25002" fill="#AD6C29"/>
<rect x="74.001" y="48.75" width="3.25002" height="3.25002" fill="#AD6C29"/>
<rect x="77.251" y="48.75" width="3.25002" height="3.25002" fill="#AD6C29"/>
<rect x="67.502" width="3.25002" height="3.25002" fill="#AD6C29"/>
<rect x="70.751" width="3.25002" height="3.25002" fill="#AD6C29"/>
<rect x="74.001" width="3.25002" height="3.25002" fill="#AD6C29"/>
<rect x="77.251" width="3.25002" height="3.25002" fill="#AD6C29"/>
<rect x="67.502" width="3.25002" height="3.25002" fill="#AD6C29"/>
<rect x="70.751" width="3.25002" height="3.25002" fill="#AD6C29"/>
<rect x="74.001" width="3.25002" height="3.25002" fill="#AD6C29"/>
<rect x="77.251" width="3.25002" height="3.25002" fill="#AD6C29"/>
<rect x="67.502" y="3.25049" width="3.25002" height="3.25002" fill="#FFE85E"/>
<rect x="77.251" y="3.25049" width="3.25002" height="3.25002" fill="#FFE85E"/>
<rect x="70.751" y="3.25049" width="3.25002" height="3.25002" fill="#FFE85E"/>
<rect x="74.001" y="3.25049" width="3.25002" height="3.25002" fill="white"/>
<rect x="67.502" y="6.5" width="3.25002" height="3.25002" fill="#E09025"/>
<rect x="70.751" y="6.5" width="3.25002" height="3.25002" fill="#E09025"/>
<rect x="74.001" y="6.5" width="3.25002" height="3.25002" fill="#E09025"/>
<rect x="77.251" y="6.5" width="3.25002" height="3.25002" fill="#E09025"/>
<rect x="54.499" y="6.5" width="3.25002" height="3.25002" fill="#E09025"/>
<rect x="57.751" y="6.5" width="3.25002" height="3.25002" fill="#E09025"/>
<rect x="61.001" y="6.5" width="3.25002" height="3.25002" fill="#E09025"/>
<rect x="64.25" y="6.5" width="3.25002" height="3.25002" fill="#E09025"/>
<rect x="67.502" y="9.74951" width="3.25002" height="3.25002" fill="#E09025"/>
<rect x="70.751" y="9.74951" width="3.25002" height="3.25002" fill="#E09025"/>
<rect x="74.001" y="9.74951" width="3.25002" height="3.25002" fill="#E09025"/>
<rect x="77.251" y="9.74951" width="3.25002" height="3.25002" fill="#E09025"/>
<rect x="54.499" y="9.74951" width="3.25002" height="3.25002" fill="#E09025"/>
<rect x="57.751" y="9.74951" width="3.25002" height="3.25002" fill="#E09025"/>
<rect x="61.001" y="9.74951" width="3.25002" height="3.25002" fill="#E09025"/>
<rect x="64.25" y="9.74951" width="3.25002" height="3.25002" fill="#E09025"/>
<rect x="67.502" y="13.0005" width="3.25002" height="3.25002" fill="#E09025"/>
<rect x="70.751" y="13.0005" width="3.25002" height="3.25002" fill="#E09025"/>
<rect x="74.001" y="13.0005" width="3.25002" height="3.25002" fill="#E09025"/>
<rect x="77.251" y="13.0005" width="3.25002" height="3.25002" fill="#E09025"/>
<rect x="54.499" y="13.0005" width="3.25002" height="3.25002" fill="#E09025"/>
<rect x="57.751" y="13.0005" width="3.25002" height="3.25002" fill="#E09025"/>
<rect x="61.001" y="13.0005" width="3.25002" height="3.25002" fill="#E09025"/>
<rect x="64.25" y="13.0005" width="3.25002" height="3.25002" fill="#E09025"/>
<rect x="67.502" y="16.25" width="3.25002" height="3.25002" fill="#E09025"/>
<rect x="70.751" y="16.25" width="3.25002" height="3.25002" fill="#E09025"/>
<rect x="74.001" y="16.25" width="3.25002" height="3.25002" fill="#E09025"/>
<rect x="77.251" y="16.25" width="3.25002" height="3.25002" fill="#E09025"/>
<rect x="54.499" y="16.25" width="3.25002" height="3.25002" fill="#E09025"/>
<rect x="57.751" y="16.25" width="3.25002" height="3.25002" fill="#E09025"/>
<rect x="61.001" y="16.25" width="3.25002" height="3.25002" fill="#E09025"/>
<rect x="64.25" y="16.25" width="3.25002" height="3.25002" fill="#E09025"/>
<rect x="67.502" y="19.5" width="3.25002" height="3.25002" fill="#E09025"/>
<rect x="70.751" y="19.5" width="3.25002" height="3.25002" fill="#E09025"/>
<rect x="74.001" y="19.5" width="3.25002" height="3.25002" fill="#E09025"/>
<rect x="77.251" y="19.5" width="3.25002" height="3.25002" fill="#E09025"/>
<rect x="54.499" y="19.5" width="3.25002" height="3.25002" fill="#E09025"/>
<rect x="57.751" y="19.5" width="3.25002" height="3.25002" fill="#E09025"/>
<rect x="61.001" y="19.5" width="3.25002" height="3.25002" fill="#E09025"/>
<rect x="64.25" y="19.5" width="3.25002" height="3.25002" fill="#E09025"/>
<rect x="67.502" y="22.7505" width="3.25002" height="3.25002" fill="#E09025"/>
<rect x="70.751" y="22.7505" width="3.25002" height="3.25002" fill="#E09025"/>
<rect x="74.001" y="22.7505" width="3.25002" height="3.25002" fill="#E09025"/>
<rect x="77.251" y="22.7505" width="3.25002" height="3.25002" fill="#E09025"/>
<rect x="54.499" y="22.7505" width="3.25002" height="3.25002" fill="#E09025"/>
<rect x="57.751" y="22.7505" width="3.25002" height="3.25002" fill="#E09025"/>
<rect x="61.001" y="22.7505" width="3.25002" height="3.25002" fill="#E09025"/>
<rect x="64.25" y="22.7505" width="3.25002" height="3.25002" fill="#E09025"/>
<rect x="67.502" y="26" width="3.25002" height="3.25002" fill="#E09025"/>
<rect x="70.751" y="26" width="3.25002" height="3.25002" fill="#E09025"/>
<rect x="74.001" y="26" width="3.25002" height="3.25002" fill="#E09025"/>
<rect x="77.251" y="26" width="3.25002" height="3.25002" fill="#E09025"/>
<rect x="54.499" y="26" width="3.25002" height="3.25002" fill="#E09025"/>
<rect x="57.751" y="26" width="3.25002" height="3.25002" fill="#E09025"/>
<rect x="61.001" y="26" width="3.25002" height="3.25002" fill="#E09025"/>
<rect x="64.25" y="26" width="3.25002" height="3.25002" fill="#E09025"/>
<rect x="67.502" y="29.249" width="3.25002" height="3.25002" fill="#E09025"/>
<rect x="70.751" y="29.249" width="3.25002" height="3.25002" fill="#E09025"/>
<rect x="74.001" y="29.249" width="3.25002" height="3.25002" fill="#E09025"/>
<rect x="77.251" y="29.249" width="3.25002" height="3.25002" fill="#E09025"/>
<rect x="54.499" y="29.249" width="3.25002" height="3.25002" fill="#E09025"/>
<rect x="57.751" y="29.249" width="3.25002" height="3.25002" fill="#E09025"/>
<rect x="61.001" y="29.249" width="3.25002" height="3.25002" fill="#E09025"/>
<rect x="64.25" y="29.249" width="3.25002" height="3.25002" fill="#E09025"/>
<rect x="67.502" y="32.5" width="3.25002" height="3.25002" fill="#E09025"/>
<rect x="70.751" y="32.5" width="3.25002" height="3.25002" fill="#E09025"/>
<rect x="74.001" y="32.5" width="3.25002" height="3.25002" fill="#E09025"/>
<rect x="77.251" y="32.5" width="3.25002" height="3.25002" fill="#E09025"/>
<rect x="54.499" y="32.5" width="3.25002" height="3.25002" fill="#E09025"/>
<rect x="57.751" y="32.5" width="3.25002" height="3.25002" fill="#E09025"/>
<rect x="61.001" y="32.5" width="3.25002" height="3.25002" fill="#E09025"/>
<rect x="64.25" y="32.5" width="3.25002" height="3.25002" fill="#E09025"/>
<rect x="67.502" y="35.7495" width="3.25002" height="3.25002" fill="#E09025"/>
<rect x="70.751" y="35.7495" width="3.25002" height="3.25002" fill="#E09025"/>
<rect x="74.001" y="35.7495" width="3.25002" height="3.25002" fill="#E09025"/>
<rect x="77.251" y="35.7495" width="3.25002" height="3.25002" fill="#E09025"/>
<rect x="54.499" y="35.7495" width="3.25002" height="3.25002" fill="#E09025"/>
<rect x="57.751" y="35.7495" width="3.25002" height="3.25002" fill="#E09025"/>
<rect x="61.001" y="35.7495" width="3.25002" height="3.25002" fill="#E09025"/>
<rect x="64.25" y="35.7495" width="3.25002" height="3.25002" fill="#E09025"/>
<rect x="67.502" y="39.0005" width="3.25002" height="3.25002" fill="#E09025"/>
<rect x="70.751" y="39.0005" width="3.25002" height="3.25002" fill="#E09025"/>
<rect x="74.001" y="39.0005" width="3.25002" height="3.25002" fill="#E09025"/>
<rect x="77.251" y="39.0005" width="3.25002" height="3.25002" fill="#E09025"/>
<rect x="54.499" y="39.0005" width="3.25002" height="3.25002" fill="#E09025"/>
<rect x="57.751" y="39.0005" width="3.25002" height="3.25002" fill="#E09025"/>
<rect x="61.001" y="39.0005" width="3.25002" height="3.25002" fill="#E09025"/>
<rect x="64.25" y="39.0005" width="3.25002" height="3.25002" fill="#E09025"/>
<rect x="67.502" y="42.251" width="3.25002" height="3.25002" fill="#E09025"/>
<rect x="70.751" y="42.251" width="3.25002" height="3.25002" fill="#E09025"/>
<rect x="74.001" y="42.251" width="3.25002" height="3.25002" fill="#E09025"/>
<rect x="77.251" y="42.251" width="3.25002" height="3.25002" fill="#E09025"/>
<rect x="54.499" y="42.251" width="3.25002" height="3.25002" fill="#E09025"/>
<rect x="57.751" y="42.251" width="3.25002" height="3.25002" fill="#E09025"/>
<rect x="61.001" y="42.251" width="3.25002" height="3.25002" fill="#E09025"/>
<rect x="64.25" y="42.251" width="3.25002" height="3.25002" fill="#E09025"/>
<rect x="67.502" y="45.5" width="3.25002" height="3.25002" fill="#E09025"/>
<rect x="70.751" y="45.5" width="3.25002" height="3.25002" fill="#E09025"/>
<rect x="74.001" y="45.5" width="3.25002" height="3.25002" fill="#E09025"/>
<rect x="80.5" y="48.75" width="3.25002" height="3.25002" fill="#AD6C29"/>
<rect x="83.75" y="48.75" width="3.25002" height="3.25002" fill="#AD6C29"/>
<rect x="87" y="48.75" width="3.25002" height="3.25002" fill="#AD6C29"/>
<rect x="80.5" y="48.75" width="3.25002" height="3.25002" fill="#AD6C29"/>
<rect x="83.75" y="48.75" width="3.25002" height="3.25002" fill="#AD6C29"/>
<rect x="87" y="48.75" width="3.25002" height="3.25002" fill="#AD6C29"/>
<rect x="80.5" width="3.25002" height="3.25002" fill="#AD6C29"/>
<rect x="83.75" width="3.25002" height="3.25002" fill="#AD6C29"/>
<rect x="87" width="3.25002" height="3.25002" fill="#AD6C29"/>
<rect x="80.5" width="3.25002" height="3.25002" fill="#AD6C29"/>
<rect x="83.75" width="3.25002" height="3.25002" fill="#AD6C29"/>
<rect x="87" width="3.25002" height="3.25002" fill="#AD6C29"/>
<rect x="80.5" y="3.25049" width="3.25002" height="3.25002" fill="#FFE85E"/>
<rect x="83.75" y="3.25049" width="3.25002" height="3.25002" fill="#FFE85E"/>
<rect x="87" y="3.25049" width="3.25002" height="3.25002" fill="white"/>
<rect x="80.5" y="6.5" width="3.25002" height="3.25002" fill="#E09025"/>
<rect x="83.75" y="6.5" width="3.25002" height="3.25002" fill="#E09025"/>
<rect x="87" y="6.5" width="3.25002" height="3.25002" fill="#E09025"/>
<rect x="80.5" y="9.74951" width="3.25002" height="3.25002" fill="#E09025"/>
<rect x="83.75" y="9.74951" width="3.25002" height="3.25002" fill="#E09025"/>
<rect x="87" y="9.74951" width="3.25002" height="3.25002" fill="#E09025"/>
<rect x="80.5" y="13.0005" width="3.25002" height="3.25002" fill="#E09025"/>
<rect x="83.75" y="13.0005" width="3.25002" height="3.25002" fill="#E09025"/>
<rect x="87" y="13.0005" width="3.25002" height="3.25002" fill="#E09025"/>
<rect x="80.5" y="16.25" width="3.25002" height="3.25002" fill="#E09025"/>
<rect x="83.75" y="16.25" width="3.25002" height="3.25002" fill="#E09025"/>
<rect x="87" y="16.25" width="3.25002" height="3.25002" fill="#E09025"/>
<rect x="80.5" y="19.5" width="3.25002" height="3.25002" fill="#E09025"/>
<rect x="83.75" y="19.5" width="3.25002" height="3.25002" fill="#E09025"/>
<rect x="87" y="19.5" width="3.25002" height="3.25002" fill="#E09025"/>
<rect x="80.5" y="22.7505" width="3.25002" height="3.25002" fill="#E09025"/>
<rect x="83.75" y="22.7505" width="3.25002" height="3.25002" fill="#E09025"/>
<rect x="87" y="22.7505" width="3.25002" height="3.25002" fill="#E09025"/>
<rect x="80.5" y="26" width="3.25002" height="3.25002" fill="#E09025"/>
<rect x="83.75" y="26" width="3.25002" height="3.25002" fill="#E09025"/>
<rect x="87" y="26" width="3.25002" height="3.25002" fill="#E09025"/>
<rect x="80.5" y="29.249" width="3.25002" height="3.25002" fill="#E09025"/>
<rect x="83.75" y="29.249" width="3.25002" height="3.25002" fill="#E09025"/>
<rect x="87" y="29.249" width="3.25002" height="3.25002" fill="#E09025"/>
<rect x="80.5" y="32.5" width="3.25002" height="3.25002" fill="#E09025"/>
<rect x="83.75" y="32.5" width="3.25002" height="3.25002" fill="#E09025"/>
<rect x="87" y="32.5" width="3.25002" height="3.25002" fill="#E09025"/>
<rect x="80.5" y="35.7495" width="3.25002" height="3.25002" fill="#E09025"/>
<rect x="83.75" y="35.7495" width="3.25002" height="3.25002" fill="#E09025"/>
<rect x="87" y="35.7495" width="3.25002" height="3.25002" fill="#E09025"/>
<rect x="80.5" y="39.0005" width="3.25002" height="3.25002" fill="#E09025"/>
<rect x="83.75" y="39.0005" width="3.25002" height="3.25002" fill="#E09025"/>
<rect x="87" y="39.0005" width="3.25002" height="3.25002" fill="#E09025"/>
<rect x="80.5" y="42.251" width="3.25002" height="3.25002" fill="#E09025"/>
<rect x="83.75" y="42.251" width="3.25002" height="3.25002" fill="#E09025"/>
<rect x="87" y="42.251" width="3.25002" height="3.25002" fill="#E09025"/>
<rect x="80.5" y="45.5" width="3.25002" height="3.25002" fill="#E09025"/>
<rect x="83.75" y="45.5" width="3.25002" height="3.25002" fill="#E09025"/>
<rect x="87" y="45.5" width="3.25002" height="3.25002" fill="#E09025"/>
<rect x="77.251" y="45.5" width="3.25002" height="3.25002" fill="#E09025"/>
<rect x="54.499" y="45.5" width="3.25002" height="3.25002" fill="#E09025"/>
<rect x="57.751" y="45.5" width="3.25002" height="3.25002" fill="#E09025"/>
<rect x="61.001" y="45.5" width="3.25002" height="3.25002" fill="#E09025"/>
<rect x="64.25" y="45.5" width="3.25002" height="3.25002" fill="#E09025"/>
<rect x="90.252" y="45.5" width="3.25002" height="3.25002" fill="#E09025"/>
<rect x="93.501" y="45.5" width="3.25002" height="3.25002" fill="#E09025"/>
<rect x="96.751" y="45.5" width="3.25002" height="3.25002" fill="#E09025"/>
<rect x="100.002" y="45.5" width="3.25002" height="3.25002" fill="#E09025"/>
<rect x="9.75" y="16.25" width="3.25002" height="3.25002" fill="white"/>
<rect x="13" y="16.25" width="3.25002" height="3.25002" fill="white"/>
<rect x="13" y="19.5" width="3.25002" height="3.25002" fill="white"/>
<rect x="9.75" y="19.5" width="3.25002" height="3.25002" fill="white"/>
<rect x="19.499" y="22.7505" width="3.25002" height="3.25002" fill="white"/>
<rect x="16.25" y="22.7505" width="3.25002" height="3.25002" fill="white"/>
<rect x="13" y="22.7505" width="3.25002" height="3.25002" fill="white"/>
<rect x="13" y="22.7505" width="3.25002" height="3.25002" fill="white"/>
<rect x="13" y="22.7505" width="3.25002" height="3.25002" fill="white"/>
<rect x="16.25" y="22.7505" width="3.25002" height="3.25002" fill="white"/>
<rect x="16.25" y="19.5" width="3.25002" height="3.25002" fill="white"/>
<rect x="16.25" y="13.0005" width="3.25002" height="3.25002" fill="#FFE85E"/>
<rect x="19.499" y="13.0005" width="3.25002" height="3.25002" fill="#FFE85E"/>
<rect x="22.749" y="16.25" width="3.25002" height="3.25002" fill="#FFE85E"/>
<rect x="26.001" y="16.25" width="3.25002" height="3.25002" fill="#FFE85E"/>
<rect x="19.499" y="16.25" width="3.25002" height="3.25002" fill="#FFE85E"/>
<rect x="16.25" y="16.25" width="3.25002" height="3.25002" fill="#FFE85E"/>
<rect x="13" y="13.0005" width="3.25002" height="3.25002" fill="#FFE85E"/>
<rect x="22.749" y="13.0005" width="3.25002" height="3.25002" fill="#FFE85E"/>
<rect x="19.499" y="19.5" width="3.25002" height="3.25002" fill="#FFE85E"/>
<rect x="22.749" y="19.5" width="3.25002" height="3.25002" fill="#FFE85E"/>
<rect x="26.001" y="19.5" width="3.25002" height="3.25002" fill="#FFE85E"/>
<rect x="16.25" y="19.5" width="3.25002" height="3.25002" fill="#FFE85E"/>
<rect x="22.749" y="22.7505" width="3.25002" height="3.25002" fill="#FFE85E"/>
<rect x="19.499" y="26" width="3.25002" height="3.25002" fill="#E09025"/>
<rect x="19.499" y="26" width="3.25002" height="3.25002" fill="#D88500"/>
<rect x="19.499" y="26" width="3.25002" height="3.25002" fill="#AD6C29"/>
<rect x="16.25" y="26" width="3.25002" height="3.25002" fill="#AD6C29"/>
<rect x="9.75" y="22.7505" width="3.25002" height="3.25002" fill="#AD6C29"/>
<rect x="9.75" y="22.7505" width="3.25002" height="3.25002" fill="#AD6C29"/>
<rect x="13" y="26" width="3.25002" height="3.25002" fill="#AD6C29"/>
<rect x="16.25" y="26" width="3.25002" height="3.25002" fill="#AD6C29"/>
<rect x="16.25" y="26" width="3.25002" height="3.25002" fill="#AD6C29"/>
<rect x="26.001" y="29.249" width="3.25002" height="3.25002" fill="#E09025"/>
<rect x="9.75" y="29.249" width="3.25002" height="3.25002" fill="#E09025"/>
<rect x="13" y="29.249" width="3.25002" height="3.25002" fill="#E09025"/>
<rect x="16.25" y="29.249" width="3.25002" height="3.25002" fill="#E09025"/>
<rect x="22.749" y="29.249" width="3.25002" height="3.25002" fill="#E09025"/>
<rect x="16.25" y="32.5" width="3.25002" height="3.25002" fill="#E09025"/>
<rect x="19.499" y="32.5" width="3.25002" height="3.25002" fill="#E09025"/>
<rect x="6.50098" y="29.249" width="3.25002" height="3.25002" fill="#9E5101"/>
<rect x="6.50098" y="29.249" width="3.25002" height="3.25002" fill="#9E5101"/>
<rect x="6.50098" y="32.5" width="3.25002" height="3.25002" fill="#9E5101"/>
<rect x="29.251" y="22.7505" width="3.25002" height="3.25002" fill="#9E5101"/>
<rect x="29.251" y="22.7505" width="3.25002" height="3.25002" fill="#9E5101"/>
<rect x="29.251" y="19.5" width="3.25002" height="3.25002" fill="#9E5101"/>
<rect x="29.251" y="26" width="3.25002" height="3.25002" fill="#9E5101"/>
<rect x="29.251" y="29.249" width="3.25002" height="3.25002" fill="#9E5101"/>
<rect x="29.251" y="29.249" width="3.25002" height="3.25002" fill="#9E5101"/>
<rect x="29.251" y="32.5" width="3.25002" height="3.25002" fill="#9E5101"/>
<rect x="9.75" y="32.5" width="3.25002" height="3.25002" fill="#9E5101"/>
<rect x="9.75" y="29.249" width="3.25002" height="3.25002" fill="#9E5101"/>
<rect x="16.25" y="32.5" width="3.25002" height="3.25002" fill="#9E5101"/>
<rect x="19.499" y="32.5" width="3.25002" height="3.25002" fill="#9E5101"/>
<rect x="13" y="32.5" width="3.25002" height="3.25002" fill="#9E5101"/>
<rect x="26.001" y="29.249" width="3.25002" height="3.25002" fill="#D88500"/>
<rect x="26.001" y="32.5" width="3.25002" height="3.25002" fill="#D88500"/>
<rect x="22.749" y="32.5" width="3.25002" height="3.25002" fill="#D88500"/>
<rect x="19.499" y="29.249" width="3.25002" height="3.25002" fill="white"/>
<rect x="16.25" y="29.249" width="3.25002" height="3.25002" fill="white"/>
<rect x="13" y="29.249" width="3.25002" height="3.25002" fill="white"/>
<rect x="13" y="29.249" width="3.25002" height="3.25002" fill="white"/>
<rect x="13" y="29.249" width="3.25002" height="3.25002" fill="white"/>
<rect x="16.25" y="29.249" width="3.25002" height="3.25002" fill="white"/>
<rect x="22.749" y="29.249" width="3.25002" height="3.25002" fill="#FFE85E"/>
<rect x="19.499" y="32.5" width="3.25002" height="3.25002" fill="#E09025"/>
<rect x="19.499" y="32.5" width="3.25002" height="3.25002" fill="#D88500"/>
<rect x="19.499" y="32.5" width="3.25002" height="3.25002" fill="#AD6C29"/>
<rect x="16.25" y="32.5" width="3.25002" height="3.25002" fill="#AD6C29"/>
<rect x="9.75" y="29.249" width="3.25002" height="3.25002" fill="#AD6C29"/>
<rect x="13" y="32.5" width="3.25002" height="3.25002" fill="#AD6C29"/>
<rect x="16.25" y="32.5" width="3.25002" height="3.25002" fill="#AD6C29"/>
<rect x="16.25" y="32.5" width="3.25002" height="3.25002" fill="#AD6C29"/>
<rect x="26.001" y="35.7495" width="3.25002" height="3.25002" fill="#E09025"/>
<rect x="9.75" y="35.7495" width="3.25002" height="3.25002" fill="#E09025"/>
<rect x="13" y="35.7495" width="3.25002" height="3.25002" fill="#E09025"/>
<rect x="16.25" y="35.7495" width="3.25002" height="3.25002" fill="#E09025"/>
<rect x="22.749" y="35.7495" width="3.25002" height="3.25002" fill="#E09025"/>
<rect x="16.25" y="39.0005" width="3.25002" height="3.25002" fill="#E09025"/>
<rect x="19.499" y="39.0005" width="3.25002" height="3.25002" fill="#E09025"/>
<rect x="6.50098" y="35.7495" width="3.25002" height="3.25002" fill="#9E5101"/>
<rect x="6.50098" y="35.7495" width="3.25002" height="3.25002" fill="#9E5101"/>
<rect x="6.50098" y="39.0005" width="3.25002" height="3.25002" fill="#9E5101"/>
<rect x="29.251" y="35.7495" width="3.25002" height="3.25002" fill="#9E5101"/>
<rect x="29.251" y="35.7495" width="3.25002" height="3.25002" fill="#9E5101"/>
<rect x="29.251" y="39.0005" width="3.25002" height="3.25002" fill="#9E5101"/>
<rect x="9.75" y="39.0005" width="3.25002" height="3.25002" fill="#9E5101"/>
<rect x="9.75" y="35.7495" width="3.25002" height="3.25002" fill="#9E5101"/>
<rect x="16.25" y="39.0005" width="3.25002" height="3.25002" fill="#9E5101"/>
<rect x="19.499" y="39.0005" width="3.25002" height="3.25002" fill="#9E5101"/>
<rect x="13" y="39.0005" width="3.25002" height="3.25002" fill="#9E5101"/>
<rect x="26.001" y="35.7495" width="3.25002" height="3.25002" fill="#D88500"/>
<rect x="26.001" y="39.0005" width="3.25002" height="3.25002" fill="#D88500"/>
<rect x="22.749" y="39.0005" width="3.25002" height="3.25002" fill="#D88500"/>
<rect x="19.499" y="35.7495" width="3.25002" height="3.25002" fill="white"/>
<rect x="16.25" y="35.7495" width="3.25002" height="3.25002" fill="white"/>
<rect x="13" y="35.7495" width="3.25002" height="3.25002" fill="white"/>
<rect x="13" y="35.7495" width="3.25002" height="3.25002" fill="white"/>
<rect x="13" y="35.7495" width="3.25002" height="3.25002" fill="white"/>
<rect x="16.25" y="35.7495" width="3.25002" height="3.25002" fill="white"/>
<rect x="22.749" y="35.7495" width="3.25002" height="3.25002" fill="#FFE85E"/>
<rect x="19.499" y="39.0005" width="3.25002" height="3.25002" fill="#E09025"/>
<rect x="19.499" y="39.0005" width="3.25002" height="3.25002" fill="#D88500"/>
<rect x="19.499" y="39.0005" width="3.25002" height="3.25002" fill="#AD6C29"/>
<rect x="16.25" y="39.0005" width="3.25002" height="3.25002" fill="#AD6C29"/>
<rect x="9.75" y="35.7495" width="3.25002" height="3.25002" fill="#AD6C29"/>
<rect x="13" y="39.0005" width="3.25002" height="3.25002" fill="#AD6C29"/>
<rect x="16.25" y="39.0005" width="3.25002" height="3.25002" fill="#AD6C29"/>
<rect x="16.25" y="39.0005" width="3.25002" height="3.25002" fill="#AD6C29"/>
<path d="M46.35 21.8C46.9333 21.9 47.4583 22.075 47.925 22.325C48.4083 22.5583 48.8167 22.85 49.15 23.2C49.4833 23.55 49.7417 23.9417 49.925 24.375C50.1083 24.7917 50.2 25.2333 50.2 25.7V26.15H48.3V25.85C48.3 25.3 48.1167 24.8333 47.75 24.45C47.4 24.0667 46.9333 23.8 46.35 23.65V27.225C47.7333 27.3917 48.7833 27.775 49.5 28.375C50.2333 28.9583 50.6 29.7667 50.6 30.8V30.95C50.6 32.0667 50.2083 32.9667 49.425 33.65C48.6583 34.3167 47.6333 34.6917 46.35 34.775V36.3H44.55V34.725C43.8167 34.6083 43.1833 34.4083 42.65 34.125C42.1333 33.825 41.7 33.475 41.35 33.075C41.0167 32.6583 40.7667 32.2167 40.6 31.75C40.4333 31.2667 40.35 30.7833 40.35 30.3V29.7H42.25V30C42.25 30.8 42.45 31.4417 42.85 31.925C43.25 32.4083 43.8167 32.7333 44.55 32.9V28.825C43.3 28.6583 42.3417 28.3 41.675 27.75C41.025 27.1833 40.7 26.4 40.7 25.4V25.25C40.7 24.7167 40.8 24.25 41 23.85C41.2167 23.4333 41.5 23.0833 41.85 22.8C42.2 22.5 42.6083 22.2667 43.075 22.1C43.5417 21.9167 44.0333 21.8 44.55 21.75V20.2H46.35V21.8ZM48.65 30.95C48.65 30.3667 48.4667 29.9333 48.1 29.65C47.7333 29.3667 47.15 29.1583 46.35 29.025V32.975C47.0667 32.8917 47.625 32.675 48.025 32.325C48.4417 31.975 48.65 31.5167 48.65 30.95ZM42.65 25.25C42.65 25.7167 42.7833 26.1 43.05 26.4C43.3333 26.6833 43.8333 26.8917 44.55 27.025V23.55C44.0167 23.6333 43.5667 23.8167 43.2 24.1C42.8333 24.3833 42.65 24.7667 42.65 25.25ZM54.7326 35.05H56.2326V21.45H54.7326V19.5H61.8076C62.641 19.5 63.3743 19.6167 64.0076 19.85C64.6576 20.0833 65.1993 20.4 65.6326 20.8C66.0826 21.2 66.416 21.6833 66.6326 22.25C66.866 22.8 66.9826 23.4 66.9826 24.05V24.35C66.9826 24.8333 66.9076 25.275 66.7576 25.675C66.6076 26.075 66.3993 26.4333 66.1326 26.75C65.866 27.0667 65.5493 27.3417 65.1826 27.575C64.8326 27.7917 64.4493 27.9583 64.0326 28.075V28.375C64.866 28.6083 65.566 29.0583 66.1326 29.725C66.6993 30.375 66.9826 31.175 66.9826 32.125V32.425C66.9826 33.075 66.866 33.6833 66.6326 34.25C66.416 34.8 66.0826 35.2833 65.6326 35.7C65.1993 36.1 64.6576 36.4167 64.0076 36.65C63.3743 36.8833 62.641 37 61.8076 37H54.7326V35.05ZM58.3326 35.05H61.6576C62.641 35.05 63.441 34.8083 64.0576 34.325C64.6743 33.825 64.9826 33.1417 64.9826 32.275V32.125C64.9826 31.225 64.691 30.5167 64.1076 30C63.5243 29.4667 62.7326 29.2 61.7326 29.2H58.3326V35.05ZM58.3326 27.25H61.7326C62.7326 27.25 63.5243 26.9917 64.1076 26.475C64.691 25.9583 64.9826 25.25 64.9826 24.35V24.2C64.9826 23.35 64.6743 22.6833 64.0576 22.2C63.441 21.7 62.641 21.45 61.6576 21.45H58.3326V27.25ZM72.3652 19.5V31.1C72.3652 32.5167 72.6902 33.5917 73.3402 34.325C74.0069 35.0417 74.9819 35.4 76.2652 35.4C77.5486 35.4 78.5152 35.0417 79.1652 34.325C79.8319 33.5917 80.1652 32.5167 80.1652 31.1V19.5H82.2652V31.1C82.2652 33.1333 81.7319 34.6833 80.6652 35.75C79.5986 36.8167 78.1319 37.35 76.2652 37.35C74.3986 37.35 72.9319 36.8167 71.8652 35.75C70.7986 34.6833 70.2652 33.1333 70.2652 31.1V19.5H72.3652ZM90.5229 30.85H90.0729L84.5979 19.5H86.9479L91.4229 29.05H91.7229L96.1979 19.5H98.5479L93.0729 30.85H92.6229V37H90.5229V30.85Z" fill="white"/>
</svg>
