<svg width="297" height="126" viewBox="0 0 297 126" fill="none" xmlns="http://www.w3.org/2000/svg">
<rect y="25.0273" width="8.29349" height="8.29349" fill="#0586CF"/>
<rect y="33.3223" width="8.29349" height="8.29349" fill="#0586CF"/>
<rect y="41.6152" width="8.29349" height="8.44158" fill="#0586CF"/>
<rect y="50.0566" width="8.29349" height="8.29349" fill="#0586CF"/>
<rect y="58.3496" width="8.29349" height="8.29349" fill="#0586CF"/>
<rect x="8.29297" y="66.6445" width="8.44158" height="8.29349" fill="#0586CF"/>
<rect x="8.29297" y="16.7363" width="8.44158" height="8.29349" fill="#0586CF"/>
<rect x="16.7363" y="74.9375" width="8.29349" height="8.44158" fill="#0586CF"/>
<rect x="16.7363" y="8.29297" width="8.29349" height="8.44158" fill="#0586CF"/>
<rect x="25.0273" y="83.3789" width="8.29349" height="8.29349" fill="#0586CF"/>
<rect x="25.0273" width="8.29349" height="8.29349" fill="#0586CF"/>
<rect x="33.3223" y="83.3789" width="8.29349" height="8.29349" fill="#0586CF"/>
<rect x="41.6152" y="83.3789" width="8.44158" height="8.29349" fill="#0586CF"/>
<rect x="33.3223" width="8.29349" height="8.29349" fill="#0586CF"/>
<rect x="41.6152" width="8.44158" height="8.29349" fill="#0586CF"/>
<rect width="8.33388" height="8.33387" transform="matrix(-1 0 0 1 91.6738 25.002)" fill="#0586CF"/>
<rect width="8.33388" height="8.33387" transform="matrix(-1 0 0 1 91.6738 33.3359)" fill="#0586CF"/>
<rect width="8.33388" height="8.33387" transform="matrix(-1 0 0 1 91.6738 41.6699)" fill="#0586CF"/>
<rect width="8.33388" height="8.33387" transform="matrix(-1 0 0 1 91.6738 50.002)" fill="#0586CF"/>
<rect width="8.33388" height="8.33387" transform="matrix(-1 0 0 1 91.6738 58.3379)" fill="#0586CF"/>
<rect width="8.33388" height="8.33387" transform="matrix(-1 0 0 1 83.3418 66.6719)" fill="#0586CF"/>
<rect width="8.33388" height="8.33387" transform="matrix(-1 0 0 1 83.3418 16.666)" fill="#0586CF"/>
<rect width="8.33388" height="8.33387" transform="matrix(-1 0 0 1 75.0078 75.0059)" fill="#0586CF"/>
<rect width="8.33388" height="8.33387" transform="matrix(-1 0 0 1 75.0078 8.33398)" fill="#0586CF"/>
<rect width="8.33388" height="8.33387" transform="matrix(-1 0 0 1 66.6719 83.3379)" fill="#0586CF"/>
<rect width="8.33388" height="8.33387" transform="matrix(-1 0 0 1 66.6719 0)" fill="#0586CF"/>
<rect width="8.33388" height="8.33387" transform="matrix(-1 0 0 1 58.3379 83.3379)" fill="#0586CF"/>
<rect width="8.33388" height="8.33387" transform="matrix(-1 0 0 1 58.3379 0)" fill="#0586CF"/>
<rect x="100.559" y="25.0273" width="8.29349" height="8.29349" fill="white"/>
<rect x="100.559" y="33.3223" width="8.29349" height="8.29349" fill="white"/>
<rect x="100.559" y="41.6152" width="8.29349" height="8.44158" fill="white"/>
<rect x="100.559" y="50.0566" width="8.29349" height="8.29349" fill="white"/>
<rect x="100.559" y="58.3496" width="8.29349" height="8.29349" fill="white"/>
<rect x="108.852" y="66.6445" width="8.44158" height="8.29349" fill="white"/>
<rect x="108.852" y="16.7363" width="8.44158" height="8.29349" fill="white"/>
<rect x="117.295" y="74.9375" width="8.29349" height="8.44158" fill="white"/>
<rect x="117.295" y="8.29297" width="8.29349" height="8.44158" fill="white"/>
<rect x="125.586" y="83.3789" width="8.29349" height="8.29349" fill="white"/>
<rect x="125.586" width="8.29349" height="8.29349" fill="white"/>
<rect x="133.883" y="83.3789" width="8.29349" height="8.29349" fill="white"/>
<rect x="142.174" y="83.3789" width="8.44158" height="8.29349" fill="white"/>
<rect x="133.883" width="8.29349" height="8.29349" fill="white"/>
<rect x="142.174" width="8.44158" height="8.29349" fill="white"/>
<rect width="8.33388" height="8.33387" transform="matrix(-1 0 0 1 192.23 25.002)" fill="white"/>
<rect width="8.33388" height="8.33387" transform="matrix(-1 0 0 1 192.23 33.3359)" fill="white"/>
<rect width="8.33388" height="8.33387" transform="matrix(-1 0 0 1 192.23 41.6699)" fill="white"/>
<rect width="8.33388" height="8.33387" transform="matrix(-1 0 0 1 192.23 50.002)" fill="white"/>
<rect width="8.33388" height="8.33387" transform="matrix(-1 0 0 1 192.23 58.3379)" fill="white"/>
<rect width="8.33388" height="8.33387" transform="matrix(-1 0 0 1 183.896 66.6719)" fill="white"/>
<rect width="8.33388" height="8.33387" transform="matrix(-1 0 0 1 183.896 16.666)" fill="white"/>
<rect width="8.33388" height="8.33387" transform="matrix(-1 0 0 1 175.562 75.0059)" fill="white"/>
<rect width="8.33388" height="8.33387" transform="matrix(-1 0 0 1 175.562 8.33398)" fill="white"/>
<rect width="8.33388" height="8.33387" transform="matrix(-1 0 0 1 167.227 83.3379)" fill="white"/>
<rect width="8.33388" height="8.33387" transform="matrix(-1 0 0 1 167.227 0)" fill="white"/>
<rect width="8.33388" height="8.33387" transform="matrix(-1 0 0 1 158.895 83.3379)" fill="white"/>
<rect width="8.33388" height="8.33387" transform="matrix(-1 0 0 1 158.895 0)" fill="white"/>
<rect x="50.0586" y="58.498" width="8.29349" height="8.29349" fill="#FDC301"/>
<rect x="50.0586" y="66.793" width="8.29349" height="8.29349" fill="#FDC301"/>
<rect x="50.0586" y="75.084" width="8.29349" height="8.44158" fill="#FDC301"/>
<rect x="50.0586" y="83.5273" width="8.29349" height="8.29349" fill="#FDC301"/>
<rect x="50.0586" y="91.8203" width="8.29349" height="8.29349" fill="#FDC301"/>
<rect x="58.3516" y="100.115" width="8.44158" height="8.29349" fill="#FDC301"/>
<rect x="58.3516" y="50.2051" width="8.44158" height="8.29349" fill="#FDC301"/>
<rect x="66.7949" y="108.406" width="8.29349" height="8.44158" fill="#FDC301"/>
<rect x="66.7949" y="41.7637" width="8.29349" height="8.44158" fill="#FDC301"/>
<rect x="75.0859" y="116.852" width="8.29349" height="8.29349" fill="#FDC301"/>
<rect x="75.0859" y="33.4688" width="8.29349" height="8.29349" fill="#FDC301"/>
<rect x="83.3809" y="116.852" width="8.29349" height="8.29349" fill="#FDC301"/>
<rect x="91.6738" y="116.852" width="8.44158" height="8.29349" fill="#FDC301"/>
<rect x="83.3809" y="33.4688" width="8.29349" height="8.29349" fill="#FDC301"/>
<rect x="91.6738" y="33.4688" width="8.44158" height="8.29349" fill="#FDC301"/>
<rect width="8.33388" height="8.33387" transform="matrix(-1 0 0 1 141.73 58.4707)" fill="#FDC301"/>
<rect width="8.33388" height="8.33387" transform="matrix(-1 0 0 1 141.73 66.8047)" fill="#FDC301"/>
<rect width="8.33388" height="8.33387" transform="matrix(-1 0 0 1 141.73 75.1387)" fill="#FDC301"/>
<rect width="8.33388" height="8.33387" transform="matrix(-1 0 0 1 141.73 83.4707)" fill="#FDC301"/>
<rect width="8.33388" height="8.33387" transform="matrix(-1 0 0 1 141.73 91.8066)" fill="#FDC301"/>
<rect width="8.33388" height="8.33387" transform="matrix(-1 0 0 1 133.396 100.141)" fill="#FDC301"/>
<rect width="8.33388" height="8.33387" transform="matrix(-1 0 0 1 133.396 50.1348)" fill="#FDC301"/>
<rect width="8.33388" height="8.33387" transform="matrix(-1 0 0 1 125.064 108.475)" fill="#FDC301"/>
<rect width="8.33388" height="8.33387" transform="matrix(-1 0 0 1 125.064 41.8027)" fill="#FDC301"/>
<rect width="8.33388" height="8.33387" transform="matrix(-1 0 0 1 116.729 116.807)" fill="#FDC301"/>
<rect width="8.33388" height="8.33387" transform="matrix(-1 0 0 1 116.729 33.4688)" fill="#FDC301"/>
<rect width="8.33388" height="8.33387" transform="matrix(-1 0 0 1 108.395 116.807)" fill="#FDC301"/>
<rect width="8.33388" height="8.33387" transform="matrix(-1 0 0 1 108.395 33.4688)" fill="#FDC301"/>
<rect x="204.818" y="25.0273" width="8.29349" height="8.29349" fill="#F31B44"/>
<rect x="204.818" y="33.3223" width="8.29349" height="8.29349" fill="#F31B44"/>
<rect x="204.818" y="41.6152" width="8.29349" height="8.44158" fill="#F31B44"/>
<rect x="204.818" y="50.0566" width="8.29349" height="8.29349" fill="#F31B44"/>
<rect x="204.818" y="58.3496" width="8.29349" height="8.29349" fill="#F31B44"/>
<rect x="213.111" y="66.6445" width="8.44158" height="8.29349" fill="#F31B44"/>
<rect x="213.111" y="16.7363" width="8.44158" height="8.29349" fill="#F31B44"/>
<rect x="221.555" y="74.9375" width="8.29349" height="8.44158" fill="#F31B44"/>
<rect x="221.555" y="8.29297" width="8.29349" height="8.44158" fill="#F31B44"/>
<rect x="229.846" y="83.3789" width="8.29349" height="8.29349" fill="#F31B44"/>
<rect x="229.846" width="8.29349" height="8.29349" fill="#F31B44"/>
<rect x="238.141" y="83.3789" width="8.29349" height="8.29349" fill="#F31B44"/>
<rect x="246.434" y="83.3789" width="8.44158" height="8.29349" fill="#F31B44"/>
<rect x="238.141" width="8.29349" height="8.29349" fill="#F31B44"/>
<rect x="246.434" width="8.44158" height="8.29349" fill="#F31B44"/>
<rect width="8.33388" height="8.33387" transform="matrix(-1 0 0 1 296.494 25.002)" fill="#F31B44"/>
<rect width="8.33388" height="8.33387" transform="matrix(-1 0 0 1 296.494 33.3359)" fill="#F31B44"/>
<rect width="8.33388" height="8.33387" transform="matrix(-1 0 0 1 296.494 41.6699)" fill="#F31B44"/>
<rect width="8.33388" height="8.33387" transform="matrix(-1 0 0 1 296.494 50.002)" fill="#F31B44"/>
<rect width="8.33388" height="8.33387" transform="matrix(-1 0 0 1 296.494 58.3379)" fill="#F31B44"/>
<rect width="8.33388" height="8.33387" transform="matrix(-1 0 0 1 288.16 66.6719)" fill="#F31B44"/>
<rect width="8.33388" height="8.33387" transform="matrix(-1 0 0 1 288.16 16.666)" fill="#F31B44"/>
<rect width="8.33388" height="8.33387" transform="matrix(-1 0 0 1 279.828 75.0059)" fill="#F31B44"/>
<rect width="8.33388" height="8.33387" transform="matrix(-1 0 0 1 279.828 8.33398)" fill="#F31B44"/>
<rect width="8.33388" height="8.33387" transform="matrix(-1 0 0 1 271.492 83.3379)" fill="#F31B44"/>
<rect width="8.33388" height="8.33387" transform="matrix(-1 0 0 1 271.492 0)" fill="#F31B44"/>
<rect width="8.33388" height="8.33387" transform="matrix(-1 0 0 1 263.158 83.3379)" fill="#F31B44"/>
<rect width="8.33388" height="8.33387" transform="matrix(-1 0 0 1 263.158 0)" fill="#F31B44"/>
<path d="M155.479 40.9617H194.611V86.798H155.479V40.9617Z" fill="#18162F"/>
<path d="M202.437 40.9617H241.569V86.798H202.437V40.9617Z" fill="#18162F"/>
<path d="M194.611 56.2404H202.437V86.798H194.611V56.2404Z" fill="#18162F"/>
<path d="M171.132 86.798H225.916V102.077H171.132V86.798Z" fill="#18162F"/>
<path d="M186.784 102.077H210.264V117.356H186.784V102.077Z" fill="#18162F"/>
<path d="M202.437 117.356H194.611V124.995H202.437V117.356Z" fill="#37FF8B"/>
<path d="M210.264 109.716H202.437V117.356H210.264V109.716Z" fill="#37FF8B"/>
<path d="M218.09 102.077H210.264V109.716H218.09V102.077Z" fill="#37FF8B"/>
<path d="M225.916 94.4374H218.09V102.077H225.916V94.4374Z" fill="#37FF8B"/>
<path d="M233.743 86.798H225.916V94.4374H233.743V86.798Z" fill="#37FF8B"/>
<path d="M241.569 79.1586H233.743V86.798H241.569V79.1586Z" fill="#37FF8B"/>
<path d="M249.396 71.5192H241.569V79.1586H249.396V71.5192Z" fill="#37FF8B"/>
<path d="M249.396 63.8798H241.569V71.5192H249.396V63.8798Z" fill="#37FF8B"/>
<path d="M249.396 56.2404H241.569V63.8798H249.396V56.2404Z" fill="#37FF8B"/>
<path d="M249.396 48.601H241.569V56.2404H249.396V48.601Z" fill="#37FF8B"/>
<path d="M241.569 40.9617H233.743V48.601H241.569V40.9617Z" fill="#37FF8B"/>
<path d="M233.743 33.3223H225.916V40.9617H233.743V33.3223Z" fill="#37FF8B"/>
<path d="M225.916 33.3223H218.09V40.9617H225.916V33.3223Z" fill="#37FF8B"/>
<path d="M218.09 33.3223H210.264V40.9617H218.09V33.3223Z" fill="#37FF8B"/>
<path d="M210.264 40.9617H202.437V48.601H210.264V40.9617Z" fill="#37FF8B"/>
<path d="M194.611 109.716H186.784V117.356H194.611V109.716Z" fill="#37FF8B"/>
<path d="M186.784 102.077H178.958V109.716H186.784V102.077Z" fill="#37FF8B"/>
<path d="M178.958 94.4374H171.132V102.077H178.958V94.4374Z" fill="#37FF8B"/>
<path d="M171.132 86.798H163.305V94.4374H171.132V86.798Z" fill="#37FF8B"/>
<path d="M163.305 79.1586H155.479V86.798H163.305V79.1586Z" fill="#37FF8B"/>
<path d="M155.479 71.5192H147.652V79.1586H155.479V71.5192Z" fill="#37FF8B"/>
<path d="M155.479 63.8798H147.652V71.5192H155.479V63.8798Z" fill="#37FF8B"/>
<path d="M155.479 56.2404H147.652V63.8798H155.479V56.2404Z" fill="#37FF8B"/>
<path d="M155.479 48.601H147.652V56.2404H155.479V48.601Z" fill="#37FF8B"/>
<path d="M163.305 40.9617H155.479V48.601H163.305V40.9617Z" fill="#37FF8B"/>
<path d="M178.958 48.601H171.132V56.2404H178.958V48.601Z" fill="#37FF8B"/>
<path d="M171.132 63.8798H163.305V71.5192H171.132V63.8798Z" fill="#37FF8B"/>
<path d="M171.132 56.2404H163.305V63.8798H171.132V56.2404Z" fill="#37FF8B"/>
<path d="M186.784 61.97H178.958V69.6093H186.784V61.97Z" fill="#37FF8B"/>
<path d="M171.132 33.3223H163.305V40.9617H171.132V33.3223Z" fill="#37FF8B"/>
<path d="M178.958 33.3223H171.132V40.9617H178.958V33.3223Z" fill="#37FF8B"/>
<path d="M186.784 33.3223H178.958V40.9617H186.784V33.3223Z" fill="#37FF8B"/>
<path d="M194.611 40.9617H186.784V48.601H194.611V40.9617Z" fill="#37FF8B"/>
<path d="M202.437 48.601H194.611V56.2404H202.437V48.601Z" fill="#37FF8B"/>
</svg>
